<svg xmlns="http://www.w3.org/2000/svg" width="85" height="29" viewBox="0 0 85 29">
  <path fill="#E97110" fill-rule="evenodd" d="M1061.71,499.78 C1061.71,503.53 1058.5,505.42 1055.44,505.42 C1053.25,505.42 1051.66,505.09 1050.1,504.37 L1050.46,502 C1051.99,502.93 1053.31,503.38 1055.32,503.38 C1057.36,503.38 1059.07,502 1059.07,500.08 C1059.07,498.1 1057.15,497.35 1055.32,496.24 L1054.66,495.85 C1052.41,494.5 1050.16,493.15 1050.16,490.36 C1050.16,487.3 1052.41,484.9 1056.1,484.9 C1058.68,484.9 1059.82,485.2 1061.41,485.86 L1061.26,488.23 C1059.55,487.21 1058.2,486.91 1056.25,486.91 C1054,486.91 1052.86,488.62 1052.86,490.18 C1052.86,492.28 1054.87,493.06 1056.76,494.2 L1057.21,494.47 C1059.49,495.82 1061.71,497.11 1061.71,499.78 Z M1075.3,504.1 C1073.89,505.03 1072.24,505.39 1070.65,505.39 C1067.05,505.39 1064.47,502.87 1064.47,498.1 C1064.47,493.12 1067.89,491.05 1070.65,491.05 C1073.14,491.05 1075,491.68 1075.18,493.48 C1075.21,493.75 1075.21,494.14 1075.21,494.47 L1073.05,494.47 C1073.05,493.3 1072.39,493.03 1070.77,493.03 C1069.84,493.03 1069.33,493.15 1069.12,493.27 C1068.88,493.39 1066.99,494.38 1066.99,498.01 C1066.99,501.82 1069.27,503.38 1071.28,503.38 C1072.42,503.38 1074.19,502.75 1075.12,502 L1075.3,504.1 Z M1089.91,498.22 C1089.91,502.42 1087.36,505.39 1083.25,505.39 C1079.47,505.39 1076.95,502.6 1076.95,498.22 C1076.95,494.23 1079.26,491.05 1083.58,491.05 C1087.39,491.05 1089.91,493.81 1089.91,498.22 Z M1087.39,497.8 C1087.09,494.05 1085.35,493.03 1083.28,493.03 C1082.2,493.03 1081.24,493.51 1080.97,493.78 C1080.67,494.08 1079.44,495.73 1079.44,498.07 C1079.44,502.39 1081.75,503.38 1083.55,503.38 C1084.48,503.38 1085.59,502.93 1085.89,502.63 C1086.22,502.3 1087.42,500.77 1087.42,498.43 C1087.42,498.22 1087.42,498.01 1087.39,497.8 Z M1105.69,497.65 C1105.69,502.33 1103.02,505.39 1099.18,505.39 C1098.07,505.39 1097.08,505.18 1096.18,504.7 L1096.18,512.47 L1093.87,512.47 L1093.87,495.19 C1093.87,493.81 1093.81,492.91 1093.63,491.41 L1095.76,491.41 L1096.12,493.42 C1097.56,491.77 1098.85,491.05 1100.77,491.05 C1103.53,491.05 1105.69,492.85 1105.69,497.65 Z M1103.17,497.92 C1103.17,495.97 1102.81,493.12 1100.23,493.12 C1099.57,493.12 1098.64,493.36 1098.43,493.48 C1098.16,493.66 1096.84,494.95 1096.18,495.91 L1096.18,502.6 C1096.81,502.99 1097.92,503.38 1098.85,503.38 C1101.79,503.38 1103.17,501.19 1103.17,497.92 Z M1120.81,505 L1118.71,505 L1118.35,503.02 C1117.06,504.79 1115.95,505.39 1113.76,505.39 C1111.33,505.39 1109.41,504.55 1109.41,501.82 L1109.41,491.41 L1111.72,491.41 L1111.72,500.2 C1111.72,501.88 1111.87,503.38 1113.97,503.38 C1114.81,503.38 1115.62,503.2 1116.37,502.84 C1117.15,502.18 1118.02,501.01 1118.26,500.44 L1118.26,491.41 L1120.57,491.41 L1120.57,501.25 C1120.57,502.48 1120.63,503.77 1120.81,505 Z M1134.04,501.34 C1134.04,503.41 1132.42,505.39 1128.88,505.39 C1127.23,505.39 1125.61,505 1124.56,504.28 L1124.83,502.12 C1126.24,503.02 1126.99,503.5 1128.82,503.5 C1130.62,503.5 1131.73,502.63 1131.73,501.49 C1131.73,498.94 1124.5,498.88 1124.5,494.83 C1124.5,492.7 1126.15,491.05 1129.54,491.05 C1131.46,491.05 1132.87,491.56 1133.86,492.07 L1133.62,494.23 C1132.3,493.15 1130.74,492.91 1129.36,492.91 C1128.13,492.91 1126.81,493.39 1126.81,494.68 C1126.81,497.17 1134.04,497.2 1134.04,501.34 Z" transform="translate(-1050 -484)"/>
</svg>
