<?xml version="1.0" encoding="UTF-8" standalone="no"?>
<svg
   xmlns:dc="http://purl.org/dc/elements/1.1/"
   xmlns:cc="http://creativecommons.org/ns#"
   xmlns:rdf="http://www.w3.org/1999/02/22-rdf-syntax-ns#"
   xmlns:svg="http://www.w3.org/2000/svg"
   xmlns="http://www.w3.org/2000/svg"
   xmlns:sodipodi="http://sodipodi.sourceforge.net/DTD/sodipodi-0.dtd"
   xmlns:inkscape="http://www.inkscape.org/namespaces/inkscape"
   width="322"
   height="259"
   viewBox="0 0 322 259"
   version="1.1"
   id="svg2"
   inkscape:version="0.48.5 r10040"
   sodipodi:docname="boarding_step2.svg">
  <metadata
     id="metadata59">
    <rdf:RDF>
      <cc:Work
         rdf:about="">
        <dc:format>image/svg+xml</dc:format>
        <dc:type
           rdf:resource="http://purl.org/dc/dcmitype/StillImage" />
      </cc:Work>
    </rdf:RDF>
  </metadata>
  <sodipodi:namedview
     pagecolor="#ffffff"
     bordercolor="#666666"
     borderopacity="1"
     objecttolerance="10"
     gridtolerance="10"
     guidetolerance="10"
     inkscape:pageopacity="0"
     inkscape:pageshadow="2"
     inkscape:window-width="1920"
     inkscape:window-height="1018"
     id="namedview57"
     showgrid="false"
     inkscape:zoom="2.5772541"
     inkscape:cx="80.208458"
     inkscape:cy="128.04607"
     inkscape:window-x="-8"
     inkscape:window-y="-8"
     inkscape:window-maximized="1"
     inkscape:current-layer="svg2" />
  <!-- Generator: Sketch 41 (35326) - http://www.bohemiancoding.com/sketch -->
  <title
     id="title4">rocket</title>
  <desc
     id="desc6">Created with Sketch.</desc>
  <defs
     id="defs8" />
  <g
     id="g3212"
     transform="translate(10,0)">
    <path
       d="m 121.0729,102.11005 57.37208,-0.48212"
       id="Shape"
       inkscape:connector-curvature="0"
       style="fill:none;stroke:#c9d3dc;stroke-width:4" />
    <path
       d="m 116.25172,119.46631 c -20.248964,7.71389 -34.230394,27.48074 -34.230394,50.62241 0,4.82119 0.482118,9.16025 1.928473,13.49931 1.446355,4.33907 32.784041,0 32.784041,0"
       id="path19"
       inkscape:connector-curvature="0"
       style="fill:none;stroke:#c9d3dc;stroke-width:4" />
    <path
       d="m 183.26616,118.98419 c 20.24897,7.71389 34.71252,27.96286 34.71251,51.10454 0,4.82118 -0.48212,9.16024 -1.92847,13.49931 -1.44636,4.33906 -32.78404,-1e-5 -32.78404,-1e-5"
       id="path21"
       inkscape:connector-curvature="0"
       style="fill:none;stroke:#c9d3dc;stroke-width:4" />
    <path
       d="m 188.04554,140.85396 c 8.16928,3.18099 14.06313,11.37713 14.15521,20.67837 0.0192,1.93776 -0.15732,3.67983 -0.72138,5.41806 -0.56407,1.73823 -13.17677,-0.13045 -13.17677,-0.13045"
       id="Shape-Copy-4"
       inkscape:connector-curvature="0"
       style="fill:none;stroke:#c9d3dc;stroke-width:3" />
    <path
       d="m 111.10361,141.11376 c -8.16929,3.18099 -14.063136,11.37713 -14.155219,20.67838 -0.01918,1.93775 0.157328,3.67982 0.72139,5.41805 0.564062,1.73823 13.176759,-0.13045 13.176759,-0.13045"
       id="Shape-Copy-17"
       inkscape:connector-curvature="0"
       style="fill:none;stroke:#c9d3dc;stroke-width:3" />
    <path
       d="m 176.99862,204.31912 c -3.00138,2.31912 -52.92434,1.31912 -54.96148,0 C 120,203 87.324152,124.94291 149.5174,56.000006 211.22855,124.46079 180,202.00001 176.99862,204.31912 z"
       id="path25"
       inkscape:connector-curvature="0"
       style="fill:none;stroke:#c9d3dc;stroke-width:4" />
    <circle
       transform="matrix(0.70710678,-0.70710678,0.70710678,0.70710678,48.883731,155.46447)"
       id="Oval"
       cx="80.590912"
       cy="62.409092"
       r="13.636364"
       d="m 94.227276,62.409092 c 0,7.531156 -6.105208,13.636364 -13.636364,13.636364 -7.531156,0 -13.636364,-6.105208 -13.636364,-13.636364 0,-7.531156 6.105208,-13.636364 13.636364,-13.636364 7.531156,0 13.636364,6.105208 13.636364,13.636364 z"
       sodipodi:cx="80.590912"
       sodipodi:cy="62.409092"
       sodipodi:rx="13.636364"
       sodipodi:ry="13.636364"
       style="fill:none;stroke:#c9d3dc;stroke-width:3" />
    <path
       d="m 136.89256,236.28474 c 0,-7.7139 5.78542,-13.49932 13.49931,-13.49931 7.71389,-1e-5 13.49931,5.78541 13.49931,13.4993 0,7.7139 -13.49931,19.28473 -13.49931,19.28473 0,0 -13.49931,-11.57083 -13.49931,-19.28472 z"
       id="path28"
       inkscape:connector-curvature="0"
       style="fill:none;stroke:#c9d3dc;stroke-width:4" />
    <rect
       id="Rectangle-14"
       x="127.81467"
       y="81.704559"
       width="14"
       height="3"
       rx="1.5"
       style="fill:#c9d3dc;stroke:none" />
    <path
       d="m 268,30 0,14"
       id="path32"
       inkscape:connector-curvature="0"
       style="fill:none;stroke:#c9d3dc;stroke-width:4" />
    <path
       d="m 261,37 14,0"
       id="path34"
       inkscape:connector-curvature="0"
       style="fill:none;stroke:#c9d3dc;stroke-width:4" />
    <path
       d="m 9,120 0,18.18182"
       id="path36"
       inkscape:connector-curvature="0"
       style="fill:none;stroke:#c9d3dc;stroke-width:4" />
    <path
       d="m 0,129 18.181818,0"
       id="path38"
       inkscape:connector-curvature="0"
       style="fill:none;stroke:#c9d3dc;stroke-width:4" />
    <path
       d="m 73.5,86 0,7"
       id="Shape-Copy-8"
       inkscape:connector-curvature="0"
       style="fill:none;stroke:#c9d3dc;stroke-width:3" />
    <path
       d="m 70,89.5 7,0"
       id="Shape-Copy-7"
       inkscape:connector-curvature="0"
       style="fill:none;stroke:#c9d3dc;stroke-width:3" />
    <path
       d="m 83.5,206 0,7"
       id="Shape-Copy-10"
       inkscape:connector-curvature="0"
       style="fill:none;stroke:#c9d3dc;stroke-width:3" />
    <path
       d="m 80,209.5 7,0"
       id="Shape-Copy-9"
       inkscape:connector-curvature="0"
       style="fill:none;stroke:#c9d3dc;stroke-width:3" />
    <path
       d="m 213.5,206 0,7"
       id="Shape-Copy-12"
       inkscape:connector-curvature="0"
       style="fill:none;stroke:#c9d3dc;stroke-width:3" />
    <path
       d="m 210,209.5 7,0"
       id="Shape-Copy-11"
       inkscape:connector-curvature="0"
       style="fill:none;stroke:#c9d3dc;stroke-width:3" />
    <path
       d="m 273,186 0,6"
       id="Shape-Copy-14"
       inkscape:connector-curvature="0"
       style="fill:none;stroke:#c9d3dc;stroke-width:2" />
    <path
       d="m 270,189 6,0"
       id="Shape-Copy-13"
       inkscape:connector-curvature="0"
       style="fill:none;stroke:#c9d3dc;stroke-width:2" />
    <path
       d="m 193.5,26 0,7"
       id="Shape-Copy-16"
       inkscape:connector-curvature="0"
       style="fill:none;stroke:#c9d3dc;stroke-width:3" />
    <path
       d="m 190,29.5 7,0"
       id="Shape-Copy-15"
       inkscape:connector-curvature="0"
       style="fill:none;stroke:#c9d3dc;stroke-width:3" />
    <path
       d="m 109,0 0,18.181818"
       id="Shape-Copy-6"
       inkscape:connector-curvature="0"
       style="fill:none;stroke:#c9d3dc;stroke-width:4" />
    <path
       d="m 100,9 18.18182,0"
       id="Shape-Copy-5"
       inkscape:connector-curvature="0"
       style="fill:none;stroke:#c9d3dc;stroke-width:4" />
    <rect
       id="Rectangle-12"
       transform="matrix(0.70710678,0.70710678,-0.70710678,0.70710678,0,0)"
       x="193.43965"
       y="-4.3284206"
       width="19"
       height="3"
       rx="1.5"
       style="fill:#c9d3dc;stroke:none" />
    <rect
       id="Rectangle-12-Copy"
       transform="matrix(0.70710678,0.70710678,-0.70710678,0.70710678,0,0)"
       x="193.05057"
       y="-10.338839"
       width="12"
       height="3"
       rx="1.5"
       style="fill:#c9d3dc;stroke:none" />
    <path
       d="m 180.73205,222 c 0.95659,-0.55229 1.91005,-0.6917 2.12472,-0.31987 l 6.71466,11.63012 c 0.21687,0.37562 -0.37613,1.12399 -1.33938,1.68013 l 0,0 c -0.95659,0.55228 -1.91005,0.6917 -2.12472,0.31987 l -6.71466,-11.63012 c -0.21686,-0.37563 0.37613,-1.124 1.33938,-1.68013"
       id="Rectangle-12-Copy-9"
       inkscape:connector-curvature="0"
       style="fill:#c9d3dc;stroke:none" />
    <path
       d="m 120.57143,223.68013 -6.71466,11.63012 c -0.21686,0.37562 -1.16147,0.23626 -2.12472,-0.31987 -0.95659,-0.55229 -1.55406,-1.3083 -1.33938,-1.68013 l 6.71466,-11.63012 c 0.21686,-0.37563 1.16147,-0.23627 2.12472,0.31987 0.95658,0.55228 1.55405,1.3083 1.33938,1.68013 z"
       id="Rectangle-12-Copy-10"
       inkscape:connector-curvature="0"
       style="fill:#c9d3dc;stroke:none" />
  </g>
</svg>
