<?xml version="1.0" encoding="UTF-8"?>
<svg width="18px" height="17px" viewBox="0 0 18 17" version="1.1" xmlns="http://www.w3.org/2000/svg" xmlns:xlink="http://www.w3.org/1999/xlink">
    <!-- Generator: Sketch 49.2 (51160) - http://www.bohemiancoding.com/sketch -->
    <title>Icon/chrome disconnected</title>
    <desc>Created with Sketch.</desc>
    <defs>
        <path d="M15.2837096,5.91191994 C15.9599947,5.7572181 16.5616197,5.40661276 17.0256915,4.92299716 C17.6487315,6.14698508 18,7.53248505 18,9 C18,11.9559228 16.5595189,14.669795 14.1876257,16.3475961 L13.3712296,16.9250884 L12.2162449,15.2922963 L13.032641,14.7148039 C14.8807729,13.4074947 16,11.2988664 16,9 C16,7.89161787 15.7423624,6.84338368 15.2837096,5.91191994 Z M11.0060946,2.29172283 C10.3705897,2.10193837 9.6971941,2 9,2 C5.13415142,2 2,5.13415142 2,9 C2,11.2988664 3.11922707,13.4074947 4.96735903,14.7148039 L5.78375512,15.2922963 L4.62877039,16.9250884 L3.8123743,16.3475961 C1.44048108,14.669795 0,11.9559228 0,9 C0,4.02958192 4.02958192,0 9,0 C9.93791435,0 10.8423279,0.143483019 11.6924872,0.409695481 C11.2963133,0.940936932 11.0473695,1.58842561 11.0060946,2.29172283 Z M11.5564935,4.39439463 C11.9318942,4.97648839 12.4752535,5.4400627 13.1180484,5.71659443 C13.8369148,6.61699121 14.2666667,7.75833882 14.2666667,9 C14.2666667,10.7300499 13.42353,12.3184831 12.0360536,13.2996706 L11.219583,13.8770576 L10.0648091,12.2441164 L10.8812797,11.6667294 C11.7448411,11.056041 12.2666667,10.0729441 12.2666667,9 C12.2666667,7.19601808 10.8039819,5.73333333 9,5.73333333 C7.19601808,5.73333333 5.73333333,7.19601808 5.73333333,9 C5.73333333,10.0729441 6.25515891,11.056041 7.11872032,11.6667294 L7.93519094,12.2441164 L6.78041697,13.8770576 L5.96394635,13.2996706 C4.57647005,12.3184831 3.73333333,10.7300499 3.73333333,9 C3.73333333,6.09144858 6.09144858,3.73333333 9,3.73333333 C9.92771721,3.73333333 10.7994349,3.97324025 11.5564935,4.39439463 Z M8.96666667,10.4666667 C8.13823954,10.4666667 7.46666667,9.79509379 7.46666667,8.96666667 C7.46666667,8.13823954 8.13823954,7.46666667 8.96666667,7.46666667 C9.79509379,7.46666667 10.4666667,8.13823954 10.4666667,8.96666667 C10.4666667,9.79509379 9.79509379,10.4666667 8.96666667,10.4666667 Z" id="path-1"></path>
    </defs>
    <g id="Symbols🔥" stroke="none" stroke-width="1" fill="none" fill-rule="evenodd">
        <g id="Chrome-status/Disconnected-Hover" transform="translate(-11.000000, -7.000000)">
            <g id="Icon/chrome-disconnected" transform="translate(11.000000, 7.000000)">
                <mask id="mask-2" fill="white">
                    <use xlink:href="#path-1"></use>
                </mask>
                <use id="Combined-Shape" fill-opacity="0.4" fill="#77909D" xlink:href="#path-1"></use>
                <circle id="Path" fill="#F44336" cx="14.5" cy="2.5" r="2.5"></circle>
            </g>
        </g>
    </g>
</svg>