<?xml version="1.0" encoding="UTF-8"?>
<svg width="466px" height="472px" viewBox="0 0 466 472" version="1.1" xmlns="http://www.w3.org/2000/svg" xmlns:xlink="http://www.w3.org/1999/xlink">
    <!-- Generator: Sketch 44.1 (41455) - http://www.bohemiancoding.com/sketch -->
    <title>Combined Shape</title>
    <desc>Created with Sketch.</desc>
    <defs>
        <path d="M0,5.00110048 C0,2.23906895 2.23412853,0 4.99604357,0 L466,0 L466,472 L4.99604357,472 C2.2368049,472 0,469.763914 0,466.9989 L0,5.00110048 Z" id="path-1"></path>
        <filter x="-5.1%" y="-6.9%" width="107.4%" height="120.0%" filterUnits="objectBoundingBox" id="filter-3">
            <feOffset dx="-3" dy="5" in="SourceAlpha" result="shadowOffsetOuter1"></feOffset>
            <feColorMatrix values="0 0 0 0 0.231372549   0 0 0 0 0.341176471   0 0 0 0 0.529411765  0 0 0 0.4 0" type="matrix" in="shadowOffsetOuter1" result="shadowMatrixOuter1"></feColorMatrix>
            <feMerge>
                <feMergeNode in="shadowMatrixOuter1"></feMergeNode>
                <feMergeNode in="SourceGraphic"></feMergeNode>
            </feMerge>
        </filter>
        <rect id="path-4" x="0" y="45" width="108" height="11" rx="5"></rect>
        <filter x="-4.5%" y="-2.2%" width="106.0%" height="104.4%" filterUnits="objectBoundingBox" id="filter-5">
            <feOffset dx="-3" dy="2" in="SourceAlpha" result="shadowOffsetOuter1"></feOffset>
            <feColorMatrix values="0 0 0 0 0.160784314   0 0 0 0 0.188235294   0 0 0 0 0.223529412  0 0 0 0.1 0" type="matrix" in="shadowOffsetOuter1" result="shadowMatrixOuter1"></feColorMatrix>
            <feMerge>
                <feMergeNode in="shadowMatrixOuter1"></feMergeNode>
                <feMergeNode in="SourceGraphic"></feMergeNode>
            </feMerge>
        </filter>
        <path d="M0,112.912198 C0,107.392737 4.39502561,102.049921 9.81977738,101.024123 C9.81977738,101.024123 26.4997103,97.5133178 34.8929736,97.5133178 C39.2342537,97.5133178 53.9476149,96.3583527 67.0381609,97.5133178 C80.1287068,98.6682829 90.2028107,100.97694 90.2028107,100.97694 C95.6136489,102.04914 100,107.391024 100,112.912198 L100,159.91833 L0,159.91833 L0,112.912198 Z" id="path-6"></path>
        <path d="M8.57715329,33.7911529 C8.57715329,29.3676189 12.1608097,25.781636 16.5749812,25.781636 L65.9374013,25.781636 C70.3544796,25.781636 73.9352291,29.3635532 73.9352291,33.7911529 L73.9352291,76.6369696 C73.9352291,90.4403865 62.7369286,101.630267 48.9347147,101.630267 L33.5776677,101.630267 C19.7702649,101.630267 8.57715329,90.4385402 8.57715329,76.6369696 L8.57715329,33.7911529 Z" id="path-7"></path>
        <filter x="-5.4%" y="-4.6%" width="110.7%" height="113.2%" filterUnits="objectBoundingBox" id="filter-8">
            <feMorphology radius="2" operator="dilate" in="SourceAlpha" result="shadowSpreadOuter1"></feMorphology>
            <feOffset dx="0" dy="3" in="shadowSpreadOuter1" result="shadowOffsetOuter1"></feOffset>
            <feComposite in="shadowOffsetOuter1" in2="SourceAlpha" operator="out" result="shadowOffsetOuter1"></feComposite>
            <feColorMatrix values="0 0 0 0 0.160784314   0 0 0 0 0.188235294   0 0 0 0 0.223529412  0 0 0 0.1 0" type="matrix" in="shadowOffsetOuter1"></feColorMatrix>
        </filter>
        <circle id="path-9" cx="29" cy="60" r="3"></circle>
        <circle id="path-10" cx="56" cy="60" r="3"></circle>
        <path d="M49.3146067,50.352809 C49.3146067,50.352809 54.1474807,49.9852089 56.456882,49.9852089 C58.7662834,49.9852089 62.811236,50.352809 62.811236,50.352809" id="path-11"></path>
        <filter x="-9.3%" y="-124.1%" width="118.5%" height="392.6%" filterUnits="objectBoundingBox" id="filter-12">
            <feMorphology radius="1" operator="dilate" in="SourceAlpha" result="shadowSpreadOuter1"></feMorphology>
            <feOffset dx="0" dy="0.5" in="shadowSpreadOuter1" result="shadowOffsetOuter1"></feOffset>
            <feMorphology radius="1" operator="erode" in="SourceAlpha" result="shadowInner"></feMorphology>
            <feOffset dx="0" dy="0.5" in="shadowInner" result="shadowInner"></feOffset>
            <feComposite in="shadowOffsetOuter1" in2="shadowInner" operator="out" result="shadowOffsetOuter1"></feComposite>
            <feColorMatrix values="0 0 0 0 0   0 0 0 0 0   0 0 0 0 0  0 0 0 0.1 0" type="matrix" in="shadowOffsetOuter1"></feColorMatrix>
        </filter>
        <path d="M19.7258427,50.2013079 C19.7258427,50.2013079 24.5587166,49.8337079 26.868118,49.8337079 C29.1775193,49.8337079 33.2224719,50.2013079 33.2224719,50.2013079" id="path-13"></path>
        <filter x="-9.3%" y="-124.1%" width="118.5%" height="392.6%" filterUnits="objectBoundingBox" id="filter-14">
            <feMorphology radius="1" operator="dilate" in="SourceAlpha" result="shadowSpreadOuter1"></feMorphology>
            <feOffset dx="0" dy="0.5" in="shadowSpreadOuter1" result="shadowOffsetOuter1"></feOffset>
            <feMorphology radius="1" operator="erode" in="SourceAlpha" result="shadowInner"></feMorphology>
            <feOffset dx="0" dy="0.5" in="shadowInner" result="shadowInner"></feOffset>
            <feComposite in="shadowOffsetOuter1" in2="shadowInner" operator="out" result="shadowOffsetOuter1"></feComposite>
            <feColorMatrix values="0 0 0 0 0   0 0 0 0 0   0 0 0 0 0  0 0 0 0.1 0" type="matrix" in="shadowOffsetOuter1"></feColorMatrix>
        </filter>
        <path d="M-0.351351351,10.4724611 C-0.351351351,5.43472862 3.73349683,1.35083951 8.77748585,1.35083951 L20.3243243,1.35083951 L20.3243243,19.5940828 L8.77748585,19.5940828 C3.73576828,19.5940828 -0.351351351,15.5113013 -0.351351351,10.4724611 L-0.351351351,10.4724611 Z" id="path-15"></path>
        <path d="M0.807009084,10.9864865 C0.807009084,6.68225774 4.2974565,3.19299092 8.60058141,3.19299092 L20.7799821,3.19299092 L20.7799821,18.7799821 L8.60058141,18.7799821 C4.29631027,18.7799821 0.807009084,15.281957 0.807009084,10.9864865 L0.807009084,10.9864865 Z" id="path-17"></path>
        <path d="M24.3243243,26.7567568 L24.3243243,42.9954681 C24.3243243,44.1025405 23.4359164,45 22.3230673,45 L5.64990566,45 C4.54464193,45 3.64864865,44.0953147 3.64864865,42.9954681 L3.64864865,26.7567568" id="path-19"></path>
        <rect id="path-21" x="0" y="204" width="317" height="6" rx="3"></rect>
        <path d="M6.83704203e-16,10.0044659 C5.53943493e-17,4.47915197 4.48702979,7.45632229e-15 10.002886,1.13749054e-14 L163.56938,1.20471852e-13 C169.093821,1.24396534e-13 173.572266,4.47391925 173.572266,10.0044659 L173.572266,31.4331271 C173.572266,36.958441 169.094033,41.4420319 163.576927,41.4475005 L26.5699469,41.583304 C24.3607789,41.5854937 21.4722802,43.0101743 20.1279585,44.7529019 L16.6700073,49.2356586 C15.993584,50.1125481 15.3107121,49.9404128 15.1454785,48.8558332 L14.6175906,45.3908205 C14.284968,43.2075132 12.2260379,41.437593 10.0178511,41.437593 L9.99909476,41.437593 C4.47674721,41.437593 3.74936455e-15,36.9636738 3.12045966e-15,31.4331271 L6.83704203e-16,10.0044659 Z" id="path-22"></path>
        <filter x="-16.4%" y="-37.2%" width="132.8%" height="214.5%" filterUnits="objectBoundingBox" id="filter-23">
            <feMorphology radius="1" operator="dilate" in="SourceAlpha" result="shadowSpreadOuter1"></feMorphology>
            <feOffset dx="0" dy="10" in="shadowSpreadOuter1" result="shadowOffsetOuter1"></feOffset>
            <feGaussianBlur stdDeviation="7.5" in="shadowOffsetOuter1" result="shadowBlurOuter1"></feGaussianBlur>
            <feComposite in="shadowBlurOuter1" in2="SourceAlpha" operator="out" result="shadowBlurOuter1"></feComposite>
            <feColorMatrix values="0 0 0 0 0.168627451   0 0 0 0 0.250980392   0 0 0 0 0.356862745  0 0 0 0.2 0" type="matrix" in="shadowBlurOuter1"></feColorMatrix>
        </filter>
    </defs>
    <g id="Web----EditTime-Pages" stroke="none" stroke-width="1" fill="none" fill-rule="evenodd">
        <g id="Switch-to-Old-view---Popup" transform="translate(-285.000000, -196.000000)">
            <g id="popup" transform="translate(279.000000, 196.000000)">
                <g id="Combined-Shape" transform="translate(6.000000, 0.000000)">
                    <mask id="mask-2" fill="white">
                        <use xlink:href="#path-1"></use>
                    </mask>
                    <use fill="#657FAC" fill-rule="evenodd" xlink:href="#path-1"></use>
                    <g id="illustration" stroke-width="1" fill-rule="evenodd" mask="url(#mask-2)">
                        <g transform="translate(75.000000, 131.000000)">
                            <g id="wall" stroke-width="1" fill-rule="evenodd" transform="translate(27.000000, 0.000000)" stroke-linecap="round" opacity="0.4" stroke-linejoin="round">
                                <g id="Group-2" transform="translate(80.000000, 0.000000)" stroke="#E7EEF0" stroke-width="2">
                                    <path d="M0.62265625,20 L107.749085,20" id="Line"></path>
                                    <path d="M0.62265625,40 L107.642969,40" id="Line"></path>
                                    <path d="M76,0.5 L76,19.9987992" id="Line"></path>
                                    <path d="M51,20.5 L51,39.9987992" id="Line"></path>
                                    <path d="M26,0.5 L26,19.9979453" id="Line"></path>
                                    <path d="M76,40.5 L76,59.9987992" id="Line"></path>
                                    <path d="M26,40.5 L26,59.9979453" id="Line"></path>
                                </g>
                                <g id="Group-2" transform="translate(0.000000, 90.000000)" stroke="#E7EEF0" stroke-width="2">
                                    <path d="M0.62265625,20 L107.749085,20" id="Line"></path>
                                    <path d="M0.62265625,40 L107.642969,40" id="Line"></path>
                                    <path d="M76,0.5 L76,19.9987992" id="Line"></path>
                                    <path d="M51,20.5 L51,39.9987992" id="Line"></path>
                                    <path d="M26,0.5 L26,19.9979453" id="Line"></path>
                                    <path d="M76,40.5 L76,59.9987992" id="Line"></path>
                                    <path d="M26,40.5 L26,59.9979453" id="Line"></path>
                                </g>
                                <g id="Group-2" transform="translate(170.000000, 90.000000)" stroke="#E7EEF0" stroke-width="2">
                                    <path d="M0.62265625,20 L107.749085,20" id="Line"></path>
                                    <path d="M0.62265625,40 L107.642969,40" id="Line"></path>
                                    <path d="M76,0.5 L76,19.9987992" id="Line"></path>
                                    <path d="M51,20.5 L51,39.9987992" id="Line"></path>
                                    <path d="M26,0.5 L26,19.9979453" id="Line"></path>
                                    <path d="M76,40.5 L76,59.9987992" id="Line"></path>
                                    <path d="M26,40.5 L26,59.9979453" id="Line"></path>
                                </g>
                            </g>
                            <g id="shelf" filter="url(#filter-3)" stroke-width="1" fill-rule="evenodd" transform="translate(13.000000, 1.000000)">
                                <g id="Books" transform="translate(10.000000, 0.000000)">
                                    <rect id="Rectangle-path" stroke="#3B5687" stroke-width="2" fill="#E7EEF0" stroke-linecap="square" x="0" y="2.06896552" width="12.2553191" height="33.6206897" rx="2"></rect>
                                    <rect id="Rectangle-path" stroke="#3B5787" stroke-width="2" fill="#E7EEF0" stroke-linecap="square" x="0" y="35.1724138" width="12.2553191" height="9.82758621" rx="2"></rect>
                                    <rect id="Rectangle-path" stroke="#3B5687" stroke-width="2" fill="#E7EEF0" stroke-linecap="square" x="11.7446809" y="2.06896552" width="12.2553191" height="33.6206897" rx="2"></rect>
                                    <rect id="Rectangle-path" stroke="#3B5787" stroke-width="2" fill="#E7EEF0" stroke-linecap="square" x="11.7446809" y="35.1724138" width="12.2553191" height="9.82758621" rx="2"></rect>
                                    <rect id="Rectangle-path" stroke="#3B5687" stroke-width="2" fill="#E7EEF0" stroke-linecap="square" transform="translate(34.723404, 17.844828) rotate(-14.999329) translate(-34.723404, -17.844828) " x="28.5957447" y="1.03448276" width="12.2553191" height="33.6206897" rx="2"></rect>
                                    <rect id="Rectangle-path" stroke="#3B5787" stroke-width="2" fill="#E7EEF0" stroke-linecap="square" transform="translate(40.340426, 38.534483) rotate(-14.999329) translate(-40.340426, -38.534483) " x="34.212766" y="33.6206897" width="12.2553191" height="9.82758621" rx="2"></rect>
                                    <path d="M0.398477623,18.8452861 C0.398477623,18.2930014 0.843151131,17.8452861 1.40602514,17.8452861 L27.7003578,17.8452861 C28.256811,17.8452861 28.7079054,18.289151 28.7079054,18.8452861 L28.7079054,18.8452861 C28.7079054,19.3975709 28.2632318,19.8452861 27.7003578,19.8452861 L1.40602514,19.8452861 C0.849572013,19.8452861 0.398477623,19.4014213 0.398477623,18.8452861 L0.398477623,18.8452861 Z" id="Rectangle-9" fill="#657FAC" opacity="0.390738225" transform="translate(14.553191, 18.845286) rotate(-270.000000) translate(-14.553191, -18.845286) "></path>
                                    <path d="M17.3984776,18.8452861 C17.3984776,18.2930014 17.8431511,17.8452861 18.4060251,17.8452861 L44.7003578,17.8452861 C45.256811,17.8452861 45.7079054,18.289151 45.7079054,18.8452861 L45.7079054,18.8452861 C45.7079054,19.3975709 45.2632318,19.8452861 44.7003578,19.8452861 L18.4060251,19.8452861 C17.849572,19.8452861 17.3984776,19.4014213 17.3984776,18.8452861 L17.3984776,18.8452861 Z" id="Rectangle-9" fill="#657FAC" opacity="0.4" transform="translate(31.553191, 18.845286) rotate(-285.000000) translate(-31.553191, -18.845286) "></path>
                                    <path d="M-11.6015224,18.8452861 C-11.6015224,18.2930014 -11.1568489,17.8452861 -10.5939749,17.8452861 L15.7003578,17.8452861 C16.256811,17.8452861 16.7079054,18.289151 16.7079054,18.8452861 L16.7079054,18.8452861 C16.7079054,19.3975709 16.2632318,19.8452861 15.7003578,19.8452861 L-10.5939749,19.8452861 C-11.150428,19.8452861 -11.6015224,19.4014213 -11.6015224,18.8452861 L-11.6015224,18.8452861 Z" id="Rectangle-9" fill="#657FAC" opacity="0.390738225" transform="translate(2.553191, 18.845286) rotate(-270.000000) translate(-2.553191, -18.845286) "></path>
                                </g>
                                <circle id="Oval-6" stroke="#3B5787" stroke-width="2" fill="#E7EEF0" cx="14.5" cy="57.5" r="7.5"></circle>
                                <rect id="Rectangle-9" fill="#3B5787" transform="translate(14.500000, 54.000000) rotate(-270.000000) translate(-14.500000, -54.000000) " x="9.5" y="52.5" width="10" height="3" rx="1.5"></rect>
                                <circle id="Oval-6" stroke="#3B5787" stroke-width="2" fill="#E7EEF0" cx="93.5" cy="57.5" r="7.5"></circle>
                                <rect id="Rectangle-9" fill="#3B5787" transform="translate(93.500000, 54.000000) rotate(-270.000000) translate(-93.500000, -54.000000) " x="88.5" y="52.5" width="10" height="3" rx="1.5"></rect>
                                <g id="Rectangle-9">
                                    <use fill="#E7EEF0" fill-rule="evenodd" xlink:href="#path-4"></use>
                                    <rect stroke="#3B5787" stroke-width="2" x="1" y="46" width="106" height="9" rx="4.5"></rect>
                                </g>
                            </g>
                            <g id="Man1" filter="url(#filter-5)" stroke-width="1" fill-rule="evenodd" transform="translate(108.000000, 46.000000)">
                                <g id="Rectangle-3">
                                    <use fill="#51BE71" fill-rule="evenodd" xlink:href="#path-6"></use>
                                    <path stroke="#293039" stroke-width="2" d="M1,158.91833 L99,158.91833 L99,112.912198 C99,107.868877 94.9515236,102.937379 89.9794337,101.951672 C89.8444087,101.920729 89.5776677,101.861697 89.1873997,101.778587 C88.534069,101.639456 87.7735585,101.484257 86.9140615,101.316997 C84.4554334,100.838543 81.6989322,100.35988 78.7101857,99.913054 C74.8697118,99.3388925 70.9278362,98.8603844 66.9502733,98.5094482 C65.2501533,98.3594484 63.4729362,98.2443696 61.6210739,98.1618148 C55.7003577,97.8978731 49.8018969,97.9643204 42.2861261,98.2559072 C41.3743738,98.2912801 38.4526469,98.4114182 37.9110699,98.4323648 C36.482761,98.4876075 35.5689292,98.5133178 34.8929736,98.5133178 C32.3943442,98.5133178 28.964199,98.8321485 24.8481307,99.4072513 C23.1025582,99.6511452 21.2680929,99.9364687 19.3747427,100.254873 C17.100263,100.637371 14.8586228,101.04731 12.7477948,101.457221 C12.0091913,101.600653 11.3398528,101.733805 10.7519962,101.853245 C10.3999797,101.924767 10.1538267,101.975723 10.0055806,102.00671 C5.06145095,102.941624 1,107.864832 1,112.912198 L1,158.91833 Z"></path>
                                </g>
                                <rect id="Rectangle-4" stroke="#293039" stroke-width="2" fill="#FADFD2" x="41" y="98" width="19" height="13" rx="6.5"></rect>
                                <g id="face" transform="translate(10.000000, 0.000000)">
                                    <g id="face---shadow">
                                        <use fill="black" fill-opacity="1" filter="url(#filter-8)" xlink:href="#path-7"></use>
                                        <use fill="#F1BCB1" fill-rule="evenodd" xlink:href="#path-7"></use>
                                        <path stroke="#293039" stroke-width="2" d="M7.57715329,33.7911529 C7.57715329,28.8166098 11.6072501,24.781636 16.5749812,24.781636 L65.9374013,24.781636 C70.9084156,24.781636 74.9352291,28.8129209 74.9352291,33.7911529 L74.9352291,76.6369696 C74.9352291,90.9909767 63.2909088,102.630267 48.9347147,102.630267 L33.5776677,102.630267 C19.2186712,102.630267 7.57715329,90.9915158 7.57715329,76.6369696 L7.57715329,33.7911529 Z"></path>
                                    </g>
                                    <path d="M8.57715329,31.7147484 C8.57715329,27.2912144 12.1608097,23.7052315 16.5749812,23.7052315 L65.9374013,23.7052315 C70.3544796,23.7052315 73.9352291,27.2871487 73.9352291,31.7147484 L73.9352291,74.5605651 C73.9352291,88.363982 62.7369286,99.5538624 48.9347147,99.5538624 L33.5776677,99.5538624 C19.7702649,99.5538624 8.57715329,88.3621357 8.57715329,74.5605651 L8.57715329,31.7147484 Z" fill="#FADFD2"></path>
                                    <g id="Oval-2">
                                        <use fill="#FFFFFF" fill-rule="evenodd" xlink:href="#path-9"></use>
                                        <circle stroke="#293039" stroke-width="2" cx="29" cy="60" r="2"></circle>
                                    </g>
                                    <g id="Oval-2">
                                        <use fill="#FFFFFF" fill-rule="evenodd" xlink:href="#path-10"></use>
                                        <circle stroke="#293039" stroke-width="2" cx="56" cy="60" r="2"></circle>
                                    </g>
                                    <g id="eyebrows" stroke-linecap="round" stroke-linejoin="round">
                                        <use fill="black" fill-opacity="1" filter="url(#filter-12)" xlink:href="#path-11"></use>
                                        <use stroke="#60524E" stroke-width="2" xlink:href="#path-11"></use>
                                    </g>
                                    <path d="M38.4134831,75.788764 C38.4134831,75.788764 39.3437803,76.3078652 41.2797974,76.3078652 C43.2158145,76.3078652 44.1461116,75.788764 44.1461116,75.788764" id="nose" stroke-opacity="0.2" stroke="#293039" stroke-width="2" stroke-linecap="round" stroke-linejoin="round"></path>
                                    <path d="M31.4134831,83.788764 C31.4134831,83.788764 34.5812099,85.5563396 41.1734834,85.5563396 C47.7657569,85.5563396 50.9334836,83.788764 50.9334836,83.788764" id="nose" stroke="#293039" stroke-width="2" stroke-linecap="round" stroke-linejoin="round"></path>
                                    <path d="M38.4134831,89.788764 C38.4134831,89.788764 39.3871696,90.3320762 41.4134831,90.3320762 C43.4397967,90.3320762 44.4134831,89.788764 44.4134831,89.788764" id="nose" stroke="#293039" stroke-width="2" stroke-linecap="round" stroke-linejoin="round"></path>
                                    <g id="eyebrows" stroke-linecap="round" stroke-linejoin="round">
                                        <use fill="black" fill-opacity="1" filter="url(#filter-14)" xlink:href="#path-13"></use>
                                        <use stroke="#60524E" stroke-width="2" xlink:href="#path-13"></use>
                                    </g>
                                    <path d="M85.4002458,61.5215941 C85.4002458,57.9827442 82.5314412,55.1139396 78.9925913,55.1139396 C75.4537414,55.1139396 72.5849368,57.9827442 72.5849368,61.5215941" id="ear---right" stroke="#293039" stroke-width="2" fill="#F7E4E0" transform="translate(78.992591, 58.317767) rotate(-270.000000) translate(-78.992591, -58.317767) "></path>
                                    <path d="M10.6478429,61.5234352 C10.6478429,57.9845854 7.78272049,55.1157807 4.24387063,55.1157807 C0.705020773,55.1157807 -2.16378386,57.9845854 -2.16378386,61.5234352 L10.6478429,61.5234352 Z" id="ear---left" stroke="#293039" stroke-width="2" fill="#F7E4E0" transform="translate(4.242029, 58.319608) rotate(-90.000000) translate(-4.242029, -58.319608) "></path>
                                    <path d="M77.6248305,54.6778787 C77.6248305,54.6778787 83.3472716,31.1185315 80.7566126,23.5327119 C78.1659536,15.9468922 64.3390114,15.7751023 64.3390114,15.7751023 C64.3390114,15.7751023 53.6687865,4.56692756 45.9092305,3.28763641 C38.1496745,2.00834526 18.6497257,8.24246783 18.6497257,8.24246783 C18.6497257,8.24246783 3.43082311,19.2981132 0.780716202,27.0140008 C-1.86939071,34.7298884 3.92732444,54.6778787 3.92732444,54.6778787 L7.5149447,53.8439235 L10.5545829,36.0953018 C10.5545829,36.0953018 12.2488642,31.0300352 14.1163557,30.0854026 C15.9838472,29.1407699 21.0948904,28.8962427 21.0948904,28.8962427 C21.0948904,28.8962427 33.2888328,30.480821 39.498963,30.0854026 C45.7090931,29.6899841 50.8932479,28.8962427 54.8397971,28.8962427 C58.7863464,28.8962427 62.8485988,27.4765475 64.7013006,29.0472003 C66.5540024,30.6178531 67.90641,32.2941947 67.90641,32.2941947 C67.90641,32.2941947 71.4246832,38.3936825 72.3130253,41.7189509 C73.2013675,45.0442194 74.8617353,53.9686939 74.8617353,53.9686939 L77.6248305,54.6778787 Z" id="hair-shadow" fill-opacity="0.2" fill="#293039"></path>
                                    <path d="M77.6248305,51.5632719 C77.6248305,51.5632719 83.3472716,28.0039248 80.7566126,20.4181051 C78.1659536,12.8322855 64.3390114,12.6604955 64.3390114,12.6604955 C64.3390114,12.6604955 53.6687865,1.45232082 45.9092305,0.173029671 C38.1496745,-1.10626148 18.6497257,5.12786109 18.6497257,5.12786109 C18.6497257,5.12786109 3.43082311,16.1835065 0.780716202,23.8993941 C-1.86939071,31.6152817 3.92732444,51.5632719 3.92732444,51.5632719 L7.5149447,50.7293167 L10.5545829,32.9806951 C10.5545829,32.9806951 12.2488642,27.9154284 14.1163557,26.9707958 C15.9838472,26.0261632 21.0948904,25.781636 21.0948904,25.781636 C21.0948904,25.781636 33.2888328,27.3662142 39.498963,26.9707958 C45.7090931,26.5753774 50.8932479,25.781636 54.8397971,25.781636 C58.7863464,25.781636 62.8485988,24.3619408 64.7013006,25.9325936 C66.5540024,27.5032464 67.90641,29.179588 67.90641,29.179588 C67.90641,29.179588 71.4246832,35.2790758 72.3130253,38.6043442 C73.2013675,41.9296126 74.8617353,50.8540871 74.8617353,50.8540871 L77.6248305,51.5632719 Z" id="hair-shadow" stroke="#293039" stroke-width="2" fill="#60524E"></path>
                                    <path d="M57.0152873,18.8615189 C57.0152873,18.8615189 61.8481613,18.4939188 64.1575626,18.4939188 C66.4669639,18.4939188 69.4109027,18.2253916 69.4109027,18.2253916" id="Line" stroke="#293039" stroke-width="2" stroke-linecap="round" stroke-linejoin="round" transform="translate(63.213095, 18.744493) rotate(-255.000000) translate(-63.213095, -18.744493) "></path>
                                </g>
                                <path d="M14.803047,125.951083 C15.9431365,138.814119 14.9369841,142.855783 14.9369841,155.111328" id="arm" stroke="#293039" stroke-width="2" stroke-linecap="round" stroke-linejoin="round" transform="translate(15.303047, 140.531205) scale(-1, 1) translate(-15.303047, -140.531205) "></path>
                                <path d="M84.803047,125.951083 C85.9431365,138.814119 84.9369841,142.855783 84.9369841,155.111328" id="arm" stroke="#293039" stroke-width="2" stroke-linecap="round" stroke-linejoin="round"></path>
                            </g>
                            <g id="laptop" stroke-width="1" fill-rule="evenodd" transform="translate(63.000000, 168.500000) scale(-1, 1) translate(-63.000000, -168.500000) translate(2.000000, 134.000000)">
                                <path d="M9.60447436e-14,62 L111.582652,62 C112.684677,62 113.323724,62.8583374 113.011298,63.9127808 L112.498489,65.6435189 C111.949237,67.4972522 109.927725,69 108.013734,69 L3.4902464,69 C1.56263654,69 -5.29361132e-14,67.4290634 -6.31088724e-30,65.5 L9.60447436e-14,62 Z" id="Rectangle-10" stroke="#3B5787" stroke-width="2" fill="#E7EEF0"></path>
                                <path d="M41.2524395,7.94687916 C41.7976872,3.55793899 45.8129745,0 50.235923,0 L114.389991,0 C118.806184,0 121.889827,3.55607419 121.281324,7.915318 L114.28458,58.0391486 C113.979226,60.2266664 111.947731,62 109.722893,62 L38.5460975,62 C36.3321011,62 34.7574587,60.2278636 35.0308388,58.0273052 L41.2524395,7.94687916 Z" id="Rectangle-10" stroke="#3B5787" stroke-width="2" fill="#E7EEF0"></path>
                                <circle id="Oval-8" fill="#657FAC" opacity="0.4" cx="79" cy="34" r="7"></circle>
                            </g>
                            <g id="plant" stroke-width="1" fill-rule="evenodd" transform="translate(264.000000, 159.000000)">
                                <path d="M4.86486486,12.1621622 L2.43243243,12.1621622" id="Shape" stroke="#293039" stroke-linecap="square"></path>
                                <path d="M25.5405405,12.1621622 L23.1081081,12.1621622" id="Shape" stroke="#293039" stroke-linecap="square"></path>
                                <path d="M4.86486486,20.6756757 L2.43243243,20.6756757" id="Shape" stroke="#293039" stroke-linecap="square"></path>
                                <path d="M25.5405405,20.6756757 L23.1081081,20.6756757" id="Shape" stroke="#293039" stroke-linecap="square"></path>
                                <path d="M13.3783784,2.43243243 L13.3783784,0" id="Shape" stroke="#293039" stroke-linecap="square"></path>
                                <path d="M4.86486486,3.64864865 L7.2972973,6.08108108" id="Shape" stroke="#293039" stroke-linecap="square"></path>
                                <path d="M23.1081081,3.64864865 L20.6756757,6.08108108" id="Shape" stroke="#293039" stroke-linecap="square"></path>
                                <path d="M1.12213346,14.6886774 C1.12213346,14.0169797 1.66579161,13.4724611 2.33186876,13.4724611 L14.6951583,13.4724611 C15.3632766,13.4724611 15.9048936,14.0122967 15.9048936,14.6886774 L15.9048936,14.6886774 C15.9048936,15.360375 15.3612354,15.9048936 14.6951583,15.9048936 L2.33186876,15.9048936 C1.6637504,15.9048936 1.12213346,15.365058 1.12213346,14.6886774 L1.12213346,14.6886774 Z" id="Rectangle-9" fill="#32A253" transform="translate(8.513514, 14.688677) rotate(-270.000000) translate(-8.513514, -14.688677) "></path>
                                <g id="Rectangle-9" transform="translate(4.000000, 3.000000)">
                                    <g id="Mask">
                                        <mask id="mask-16" fill="white">
                                            <use xlink:href="#path-15"></use>
                                        </mask>
                                        <use stroke="#293039" fill="#62DF87" transform="translate(9.986486, 10.472461) rotate(-270.000000) translate(-9.986486, -10.472461) " xlink:href="#path-15"></use>
                                        <mask id="mask-18" fill="white">
                                            <use xlink:href="#path-17"></use>
                                        </mask>
                                        <use fill="#51BE71" transform="translate(10.793496, 10.986486) rotate(-270.000000) translate(-10.793496, -10.986486) " xlink:href="#path-17"></use>
                                    </g>
                                </g>
                                <mask id="mask-20" fill="white">
                                    <use xlink:href="#path-19"></use>
                                </mask>
                                <use id="Shape" stroke="#293039" fill="#CFD8DC" stroke-linecap="round" stroke-linejoin="round" xlink:href="#path-19"></use>
                                <path d="M23.8176002,26.8618575 L23.8176002,42.994731 C23.8176002,43.8251921 23.1417107,44.4984139 22.3156694,44.4984139 L8.02852809,44.4984139 C6.92019065,44.4984139 6.02170563,43.5944648 6.02170563,42.4927283 L6.02170563,25.7567568" id="Shape" fill="#E7EEF0" mask="url(#mask-20)"></path>
                                <path d="M0,25.6025063 C1.74403334e-21,24.6197264 0.792117104,23.8230259 1.77105612,23.8230259 L26.2019169,23.8230259 C27.1800441,23.8230259 27.972973,24.6128746 27.972973,25.6025063 L27.972973,25.6025063 C27.972973,26.5852862 27.1808559,27.3819867 26.2019169,27.3819867 L1.77105612,27.3819867 C0.792928833,27.3819867 -1.75619242e-21,26.592138 0,25.6025063 L0,25.6025063 Z" id="Rectangle-path" stroke="#293039" fill="#E7EEF0" stroke-linecap="square"></path>
                            </g>
                            <g id="coffe---icon" stroke-width="1" fill-rule="evenodd" transform="translate(239.000000, 185.000000) scale(-1, 1) translate(-239.000000, -185.000000) translate(225.000000, 165.000000)">
                                <path d="M4.89674728,5.37706495 C4.89674728,5.37706495 3.45236802,6.86322304 3.45236802,8.84417708 C3.45236802,11.0327861 5.40057169,10.5505592 5.40057169,12.1054045 C5.40057169,13.6602499 4.0195688,14.6824151 4.0195688,14.6824151" id="Shape" stroke="#FFFFFF" opacity="0.40477808" stroke-linecap="round" stroke-linejoin="round"></path>
                                <path d="M11.5634139,0.0437316135 C11.5634139,0.0437316135 10.1190347,1.52988971 10.1190347,3.51084374 C10.1190347,5.69945274 12.0672384,5.21722586 12.0672384,6.7720712 C12.0672384,8.32691653 10.6862355,9.34908173 10.6862355,9.34908173" id="Shape" stroke="#FFFFFF" opacity="0.40477808" stroke-linecap="round" stroke-linejoin="round"></path>
                                <path d="M18.2300806,5.37706495 C18.2300806,5.37706495 16.7857013,6.86322304 16.7857013,8.84417708 C16.7857013,11.0327861 18.733905,10.5505592 18.733905,12.1054045 C18.733905,13.6602499 17.3529021,14.6824151 17.3529021,14.6824151" id="Shape" stroke="#FFFFFF" opacity="0.40477808" stroke-linecap="round" stroke-linejoin="round"></path>
                                <path d="M16.6666667,39.3333333 L6,39.3333333 C3.06666667,39.3333333 0.666666667,36.9333333 0.666666667,34 L0.666666667,18 L22,18 L22,34 C22,36.9333333 19.6,39.3333333 16.6666667,39.3333333 Z" id="Shape" stroke="#293039" fill="#E7EEF0" stroke-linecap="square"></path>
                                <path d="M22,19.3333333 L27.3333333,19.3333333 L27.3333333,24.6666667 C27.3333333,26.1333333 26.1333333,27.3333333 24.6666667,27.3333333 L22,27.3333333" id="Shape" stroke="#293039" stroke-linecap="square"></path>
                            </g>
                            <g id="Rectangle-9">
                                <use fill="#3B5787" fill-rule="evenodd" xlink:href="#path-21"></use>
                                <rect stroke="#3B5787" stroke-width="2" x="1" y="205" width="315" height="4" rx="2"></rect>
                            </g>
                        </g>
                    </g>
                    <g id="ui-24px-outline-3_chat-45" stroke-width="1" fill-rule="evenodd" mask="url(#mask-2)">
                        <g transform="translate(247.000000, 126.000000)">
                            <g id="Shape" fill="none" stroke-linecap="square">
                                <use fill="black" fill-opacity="1" filter="url(#filter-23)" xlink:href="#path-22"></use>
                                <use stroke="#444444" stroke-width="2" fill="#E7EEF0" fill-rule="evenodd" xlink:href="#path-22"></use>
                            </g>
                            <path d="M17.6513672,22.4023438 L13.4814453,22.4023438 L12.5449219,25 L11.1914062,25 L14.9921875,15.046875 L16.140625,15.046875 L19.9482422,25 L18.6015625,25 L17.6513672,22.4023438 Z M13.8779297,21.3222656 L17.2617188,21.3222656 L15.5664062,16.6669922 L13.8779297,21.3222656 Z M27.3378906,21.3837891 C27.3378906,22.5094457 27.0804062,23.4163377 26.5654297,24.1044922 C26.0504532,24.7926467 25.3531945,25.1367188 24.4736328,25.1367188 C23.5758419,25.1367188 22.8694687,24.8518909 22.3544922,24.2822266 L22.3544922,27.84375 L21.0898438,27.84375 L21.0898438,17.6035156 L22.2451172,17.6035156 L22.3066406,18.4238281 C22.8216172,17.7858041 23.5371048,17.4667969 24.453125,17.4667969 C25.3418013,17.4667969 26.0447565,17.8017545 26.5620117,18.4716797 C27.0792669,19.1416049 27.3378906,20.0735617 27.3378906,21.2675781 L27.3378906,21.3837891 Z M26.0732422,21.2402344 C26.0732422,20.4062458 25.8955096,19.7477238 25.5400391,19.2646484 C25.1845685,18.7815731 24.6969432,18.5400391 24.0771484,18.5400391 C23.3115196,18.5400391 22.7373066,18.8795539 22.3544922,19.5585938 L22.3544922,23.0927734 C22.7327493,23.767256 23.3115195,24.1044922 24.0908203,24.1044922 C24.6969431,24.1044922 25.1788719,23.8640975 25.5366211,23.3833008 C25.8943703,22.9025041 26.0732422,22.1881558 26.0732422,21.2402344 Z M35.1923828,21.3837891 C35.1923828,22.5094457 34.9348984,23.4163377 34.4199219,24.1044922 C33.9049453,24.7926467 33.2076867,25.1367188 32.328125,25.1367188 C31.4303341,25.1367188 30.7239609,24.8518909 30.2089844,24.2822266 L30.2089844,27.84375 L28.9443359,27.84375 L28.9443359,17.6035156 L30.0996094,17.6035156 L30.1611328,18.4238281 C30.6761093,17.7858041 31.391597,17.4667969 32.3076172,17.4667969 C33.1962935,17.4667969 33.8992487,17.8017545 34.4165039,18.4716797 C34.9337591,19.1416049 35.1923828,20.0735617 35.1923828,21.2675781 L35.1923828,21.3837891 Z M33.9277344,21.2402344 C33.9277344,20.4062458 33.7500018,19.7477238 33.3945312,19.2646484 C33.0390607,18.7815731 32.5514354,18.5400391 31.9316406,18.5400391 C31.1660118,18.5400391 30.5917988,18.8795539 30.2089844,19.5585938 L30.2089844,23.0927734 C30.5872415,23.767256 31.1660117,24.1044922 31.9453125,24.1044922 C32.5514353,24.1044922 33.0333641,23.8640975 33.3911133,23.3833008 C33.7488625,22.9025041 33.9277344,22.1881558 33.9277344,21.2402344 Z M40.3740234,18.7382812 C40.1826162,18.70638 39.9752615,18.6904297 39.7519531,18.6904297 C38.9225219,18.6904297 38.359702,19.0436163 38.0634766,19.75 L38.0634766,25 L36.7988281,25 L36.7988281,17.6035156 L38.0292969,17.6035156 L38.0498047,18.4580078 C38.4645203,17.7971972 39.052405,17.4667969 39.8134766,17.4667969 C40.0595715,17.4667969 40.2464186,17.4986976 40.3740234,17.5625 L40.3740234,18.7382812 Z M44.6054688,25.1367188 C43.6028596,25.1367188 42.7871125,24.8074577 42.1582031,24.1489258 C41.5292937,23.4903938 41.2148438,22.609706 41.2148438,21.5068359 L41.2148438,21.2744141 C41.2148438,20.5406864 41.3549791,19.8855823 41.6352539,19.309082 C41.9155287,18.7325818 42.3074519,18.2814144 42.8110352,17.9555664 C43.3146184,17.6297184 43.8603486,17.4667969 44.4482422,17.4667969 C45.4098355,17.4667969 46.1572239,17.7835255 46.6904297,18.4169922 C47.2236355,19.0504589 47.4902344,19.9573509 47.4902344,21.1376953 L47.4902344,21.6640625 L42.4794922,21.6640625 C42.4977214,22.3932328 42.7107727,22.9822569 43.1186523,23.4311523 C43.526532,23.8800478 44.0449187,24.1044922 44.6738281,24.1044922 C45.1204449,24.1044922 45.4986964,24.0133473 45.8085938,23.8310547 C46.1184911,23.6487621 46.3896473,23.4072281 46.6220703,23.1064453 L47.3945312,23.7080078 C46.7747365,24.6604865 45.8450583,25.1367188 44.6054688,25.1367188 Z M44.4482422,18.5058594 C43.937823,18.5058594 43.5094418,18.6915672 43.1630859,19.0629883 C42.81673,19.4344094 42.6025395,19.9550748 42.5205078,20.625 L46.2255859,20.625 L46.2255859,20.5292969 C46.1891274,19.8867155 46.0159521,19.3888364 45.7060547,19.0356445 C45.3961573,18.6824527 44.9768907,18.5058594 44.4482422,18.5058594 Z M51.9199219,24.1044922 C52.371096,24.1044922 52.7652978,23.9677748 53.1025391,23.6943359 C53.4397803,23.4208971 53.6266274,23.0791036 53.6630859,22.6689453 L54.859375,22.6689453 C54.8365884,23.0927756 54.6907566,23.4960918 54.421875,23.8789062 C54.1529934,24.2617207 53.7941103,24.5670562 53.3452148,24.7949219 C52.8963194,25.0227876 52.4212265,25.1367188 51.9199219,25.1367188 C50.9127554,25.1367188 50.1118194,24.8006219 49.5170898,24.128418 C48.9223603,23.4562141 48.625,22.5367897 48.625,21.3701172 L48.625,21.1582031 C48.625,20.4381474 48.7571601,19.7978544 49.0214844,19.2373047 C49.2858086,18.676755 49.6651994,18.241538 50.159668,17.9316406 C50.6541366,17.6217432 51.2386034,17.4667969 51.9130859,17.4667969 C52.7425172,17.4667969 53.4318006,17.7151668 53.980957,18.2119141 C54.5301134,18.7086613 54.8229165,19.3535117 54.859375,20.1464844 L53.6630859,20.1464844 C53.6266274,19.6679664 53.4454769,19.2749039 53.1196289,18.9672852 C52.7937809,18.6596664 52.391604,18.5058594 51.9130859,18.5058594 C51.2705046,18.5058594 50.7726255,18.7371396 50.4194336,19.199707 C50.0662417,19.6622744 49.8896484,20.3310503 49.8896484,21.2060547 L49.8896484,21.4453125 C49.8896484,22.2975303 50.0651024,22.9537737 50.4160156,23.4140625 C50.7669288,23.8743513 51.2682259,24.1044922 51.9199219,24.1044922 Z M57.6552734,25 L56.390625,25 L56.390625,17.6035156 L57.6552734,17.6035156 L57.6552734,25 Z M56.2880859,15.6416016 C56.2880859,15.4365224 56.3507481,15.2633471 56.4760742,15.1220703 C56.6014004,14.9807936 56.7871081,14.9101562 57.0332031,14.9101562 C57.2792981,14.9101562 57.4661452,14.9807936 57.59375,15.1220703 C57.7213548,15.2633471 57.7851562,15.4365224 57.7851562,15.6416016 C57.7851562,15.8466807 57.7213548,16.0175774 57.59375,16.1542969 C57.4661452,16.2910163 57.2792981,16.359375 57.0332031,16.359375 C56.7871081,16.359375 56.6014004,16.2910163 56.4760742,16.1542969 C56.3507481,16.0175774 56.2880859,15.8466807 56.2880859,15.6416016 Z M64.2451172,25 C64.1722002,24.8541659 64.112956,24.5944029 64.0673828,24.2207031 C63.4794892,24.8313833 62.7776733,25.1367188 61.9619141,25.1367188 C61.2327437,25.1367188 60.6346052,24.9305034 60.1674805,24.5180664 C59.7003557,24.1056294 59.4667969,23.5826855 59.4667969,22.9492188 C59.4667969,22.1790326 59.7595999,21.5808941 60.3452148,21.1547852 C60.9308298,20.7286763 61.754552,20.515625 62.8164062,20.515625 L64.046875,20.515625 L64.046875,19.9345703 C64.046875,19.4925108 63.9147149,19.1404635 63.6503906,18.878418 C63.3860664,18.6163724 62.9964218,18.4853516 62.4814453,18.4853516 C62.0302712,18.4853516 61.6520198,18.5992827 61.3466797,18.8271484 C61.0413396,19.0550142 60.8886719,19.3307275 60.8886719,19.6542969 L59.6171875,19.6542969 C59.6171875,19.2851544 59.7482083,18.9285499 60.0102539,18.5844727 C60.2722995,18.2403954 60.6277647,17.9681 61.0766602,17.7675781 C61.5255556,17.5670563 62.0188775,17.4667969 62.5566406,17.4667969 C63.4088584,17.4667969 64.076495,17.6798481 64.5595703,18.105957 C65.0426456,18.5320659 65.2932942,19.1188114 65.3115234,19.8662109 L65.3115234,23.2705078 C65.3115234,23.9495477 65.3981111,24.4895813 65.5712891,24.890625 L65.5712891,25 L64.2451172,25 Z M62.1464844,24.0361328 C62.5429707,24.0361328 62.9189435,23.9335948 63.2744141,23.7285156 C63.6298846,23.5234365 63.887369,23.2568376 64.046875,22.9287109 L64.046875,21.4111328 L63.0556641,21.4111328 C61.5061771,21.4111328 60.7314453,21.8645788 60.7314453,22.7714844 C60.7314453,23.1679707 60.8636054,23.4778635 61.1279297,23.7011719 C61.3922539,23.9244803 61.7317688,24.0361328 62.1464844,24.0361328 Z M69.0097656,15.8125 L69.0097656,17.6035156 L70.390625,17.6035156 L70.390625,18.5810547 L69.0097656,18.5810547 L69.0097656,23.1679688 C69.0097656,23.4641942 69.0712884,23.6863599 69.1943359,23.8344727 C69.3173834,23.9825854 69.5270167,24.0566406 69.8232422,24.0566406 C69.9690763,24.0566406 70.1695951,24.0292971 70.4248047,23.9746094 L70.4248047,25 C70.0921207,25.0911463 69.7685563,25.1367188 69.4541016,25.1367188 C68.8889946,25.1367188 68.4628921,24.965822 68.1757812,24.6240234 C67.8886704,24.2822249 67.7451172,23.7968781 67.7451172,23.1679688 L67.7451172,18.5810547 L66.3984375,18.5810547 L66.3984375,17.6035156 L67.7451172,17.6035156 L67.7451172,15.8125 L69.0097656,15.8125 Z M74.9365234,25.1367188 C73.9339143,25.1367188 73.1181672,24.8074577 72.4892578,24.1489258 C71.8603484,23.4903938 71.5458984,22.609706 71.5458984,21.5068359 L71.5458984,21.2744141 C71.5458984,20.5406864 71.6860338,19.8855823 71.9663086,19.309082 C72.2465834,18.7325818 72.6385066,18.2814144 73.1420898,17.9555664 C73.6456731,17.6297184 74.1914033,17.4667969 74.7792969,17.4667969 C75.7408902,17.4667969 76.4882786,17.7835255 77.0214844,18.4169922 C77.5546902,19.0504589 77.8212891,19.9573509 77.8212891,21.1376953 L77.8212891,21.6640625 L72.8105469,21.6640625 C72.8287761,22.3932328 73.0418274,22.9822569 73.449707,23.4311523 C73.8575867,23.8800478 74.3759734,24.1044922 75.0048828,24.1044922 C75.4514996,24.1044922 75.8297511,24.0133473 76.1396484,23.8310547 C76.4495458,23.6487621 76.720702,23.4072281 76.953125,23.1064453 L77.7255859,23.7080078 C77.1057912,24.6604865 76.176113,25.1367188 74.9365234,25.1367188 Z M74.7792969,18.5058594 C74.2688777,18.5058594 73.8404965,18.6915672 73.4941406,19.0629883 C73.1477847,19.4344094 72.9335942,19.9550748 72.8515625,20.625 L76.5566406,20.625 L76.5566406,20.5292969 C76.5201821,19.8867155 76.3470068,19.3888364 76.0371094,19.0356445 C75.727212,18.6824527 75.3079454,18.5058594 74.7792969,18.5058594 Z M85.1699219,23.1474609 L86.8925781,17.6035156 L88.2460938,17.6035156 L85.2724609,26.1416016 C84.8121722,27.3720765 84.0807342,27.9873047 83.078125,27.9873047 L82.8388672,27.9667969 L82.3671875,27.8779297 L82.3671875,26.8525391 L82.7089844,26.8798828 C83.1373719,26.8798828 83.4711902,26.7932951 83.7104492,26.6201172 C83.9497082,26.4469392 84.1468091,26.1302106 84.3017578,25.6699219 L84.5820312,24.9179688 L81.9433594,17.6035156 L83.3242188,17.6035156 L85.1699219,23.1474609 Z M89.0390625,21.2333984 C89.0390625,20.5087854 89.1814764,19.8570992 89.4663086,19.2783203 C89.7511407,18.6995414 90.1476212,18.2529313 90.6557617,17.9384766 C91.1639023,17.6240219 91.7438118,17.4667969 92.3955078,17.4667969 C93.4026743,17.4667969 94.217282,17.8154262 94.8393555,18.5126953 C95.4614289,19.2099644 95.7724609,20.137364 95.7724609,21.2949219 L95.7724609,21.3837891 C95.7724609,22.1038447 95.6346042,22.7498344 95.3588867,23.3217773 C95.0831692,23.8937203 94.6889674,24.3391911 94.1762695,24.6582031 C93.6635717,24.9772151 93.0745476,25.1367188 92.4091797,25.1367188 C91.4065705,25.1367188 90.5942414,24.7880894 89.972168,24.0908203 C89.3500945,23.3935512 89.0390625,22.4707089 89.0390625,21.3222656 L89.0390625,21.2333984 Z M90.3105469,21.3837891 C90.3105469,22.2041057 90.5008119,22.8626277 90.8813477,23.359375 C91.2618834,23.8561223 91.7711557,24.1044922 92.4091797,24.1044922 C93.051761,24.1044922 93.5621726,23.8527043 93.9404297,23.3491211 C94.3186868,22.8455378 94.5078125,22.140304 94.5078125,21.2333984 C94.5078125,20.4221965 94.3152689,19.7648137 93.9301758,19.2612305 C93.5450827,18.7576472 93.0335318,18.5058594 92.3955078,18.5058594 C91.7711557,18.5058594 91.26758,18.7542293 90.8847656,19.2509766 C90.5019512,19.7477238 90.3105469,20.4586542 90.3105469,21.3837891 Z M101.924805,24.2685547 C101.432615,24.8473336 100.710291,25.1367188 99.7578125,25.1367188 C98.9693971,25.1367188 98.3689799,24.9077171 97.956543,24.449707 C97.544106,23.9916969 97.335612,23.3138066 97.3310547,22.4160156 L97.3310547,17.6035156 L98.5957031,17.6035156 L98.5957031,22.3818359 C98.5957031,23.5029353 99.0514277,24.0634766 99.9628906,24.0634766 C100.929041,24.0634766 101.571613,23.7034541 101.890625,22.9833984 L101.890625,17.6035156 L103.155273,17.6035156 L103.155273,25 L101.952148,25 L101.924805,24.2685547 Z M108.651367,18.7382812 C108.45996,18.70638 108.252605,18.6904297 108.029297,18.6904297 C107.199866,18.6904297 106.637046,19.0436163 106.34082,19.75 L106.34082,25 L105.076172,25 L105.076172,17.6035156 L106.306641,17.6035156 L106.327148,18.4580078 C106.741864,17.7971972 107.329749,17.4667969 108.09082,17.4667969 C108.336915,17.4667969 108.523762,17.4986976 108.651367,17.5625 L108.651367,18.7382812 Z M117.585938,23.0380859 C117.585938,22.6962874 117.457195,22.4308278 117.199707,22.2416992 C116.942219,22.0525707 116.49333,21.8896491 115.853027,21.7529297 C115.212725,21.6162103 114.704592,21.4521494 114.328613,21.2607422 C113.952635,21.069335 113.674643,20.8414727 113.494629,20.5771484 C113.314615,20.3128242 113.224609,19.9983742 113.224609,19.6337891 C113.224609,19.0276662 113.480954,18.5149761 113.993652,18.0957031 C114.50635,17.6764302 115.161454,17.4667969 115.958984,17.4667969 C116.79753,17.4667969 117.477699,17.6832661 117.999512,18.1162109 C118.521324,18.5491558 118.782227,19.1028612 118.782227,19.7773438 L117.510742,19.7773438 C117.510742,19.4309879 117.363771,19.1324882 117.069824,18.8818359 C116.775877,18.6311836 116.405601,18.5058594 115.958984,18.5058594 C115.498696,18.5058594 115.138673,18.6061188 114.878906,18.8066406 C114.619139,19.0071625 114.489258,19.2692041 114.489258,19.5927734 C114.489258,19.8981135 114.610025,20.1282544 114.851562,20.2832031 C115.0931,20.4381518 115.529456,20.5862623 116.160645,20.7275391 C116.791833,20.8688158 117.303383,21.0374339 117.695312,21.2333984 C118.087242,21.429363 118.377766,21.6652004 118.566895,21.940918 C118.756023,22.2166355 118.850586,22.5527324 118.850586,22.9492188 C118.850586,23.6100293 118.586266,24.1398092 118.057617,24.5385742 C117.528969,24.9373392 116.843103,25.1367188 116,25.1367188 C115.407549,25.1367188 114.883466,25.0319021 114.427734,24.8222656 C113.972003,24.6126292 113.615398,24.3198261 113.35791,23.9438477 C113.100422,23.5678692 112.97168,23.161135 112.97168,22.7236328 L114.236328,22.7236328 C114.259115,23.1474631 114.428872,23.48356 114.745605,23.7319336 C115.062339,23.9803072 115.480466,24.1044922 116,24.1044922 C116.478518,24.1044922 116.862466,24.0076507 117.151855,23.8139648 C117.441245,23.620279 117.585938,23.3616553 117.585938,23.0380859 Z M125.064453,24.2685547 C124.572263,24.8473336 123.84994,25.1367188 122.897461,25.1367188 C122.109046,25.1367188 121.508628,24.9077171 121.096191,24.449707 C120.683754,23.9916969 120.47526,23.3138066 120.470703,22.4160156 L120.470703,17.6035156 L121.735352,17.6035156 L121.735352,22.3818359 C121.735352,23.5029353 122.191076,24.0634766 123.102539,24.0634766 C124.06869,24.0634766 124.711261,23.7034541 125.030273,22.9833984 L125.030273,17.6035156 L126.294922,17.6035156 L126.294922,25 L125.091797,25 L125.064453,24.2685547 Z M134.463867,21.3837891 C134.463867,22.5094457 134.206383,23.4163377 133.691406,24.1044922 C133.17643,24.7926467 132.479171,25.1367188 131.599609,25.1367188 C130.701818,25.1367188 129.995445,24.8518909 129.480469,24.2822266 L129.480469,27.84375 L128.21582,27.84375 L128.21582,17.6035156 L129.371094,17.6035156 L129.432617,18.4238281 C129.947594,17.7858041 130.663081,17.4667969 131.579102,17.4667969 C132.467778,17.4667969 133.170733,17.8017545 133.687988,18.4716797 C134.205243,19.1416049 134.463867,20.0735617 134.463867,21.2675781 L134.463867,21.3837891 Z M133.199219,21.2402344 C133.199219,20.4062458 133.021486,19.7477238 132.666016,19.2646484 C132.310545,18.7815731 131.82292,18.5400391 131.203125,18.5400391 C130.437496,18.5400391 129.863283,18.8795539 129.480469,19.5585938 L129.480469,23.0927734 C129.858726,23.767256 130.437496,24.1044922 131.216797,24.1044922 C131.82292,24.1044922 132.304848,23.8640975 132.662598,23.3833008 C133.020347,22.9025041 133.199219,22.1881558 133.199219,21.2402344 Z M142.318359,21.3837891 C142.318359,22.5094457 142.060875,23.4163377 141.545898,24.1044922 C141.030922,24.7926467 140.333663,25.1367188 139.454102,25.1367188 C138.556311,25.1367188 137.849937,24.8518909 137.334961,24.2822266 L137.334961,27.84375 L136.070312,27.84375 L136.070312,17.6035156 L137.225586,17.6035156 L137.287109,18.4238281 C137.802086,17.7858041 138.517574,17.4667969 139.433594,17.4667969 C140.32227,17.4667969 141.025225,17.8017545 141.54248,18.4716797 C142.059736,19.1416049 142.318359,20.0735617 142.318359,21.2675781 L142.318359,21.3837891 Z M141.053711,21.2402344 C141.053711,20.4062458 140.875978,19.7477238 140.520508,19.2646484 C140.165037,18.7815731 139.677412,18.5400391 139.057617,18.5400391 C138.291988,18.5400391 137.717775,18.8795539 137.334961,19.5585938 L137.334961,23.0927734 C137.713218,23.767256 138.291988,24.1044922 139.071289,24.1044922 C139.677412,24.1044922 140.159341,23.8640975 140.51709,23.3833008 C140.874839,22.9025041 141.053711,22.1881558 141.053711,21.2402344 Z M143.589844,21.2333984 C143.589844,20.5087854 143.732258,19.8570992 144.01709,19.2783203 C144.301922,18.6995414 144.698402,18.2529313 145.206543,17.9384766 C145.714684,17.6240219 146.294593,17.4667969 146.946289,17.4667969 C147.953456,17.4667969 148.768063,17.8154262 149.390137,18.5126953 C150.01221,19.2099644 150.323242,20.137364 150.323242,21.2949219 L150.323242,21.3837891 C150.323242,22.1038447 150.185385,22.7498344 149.909668,23.3217773 C149.63395,23.8937203 149.239749,24.3391911 148.727051,24.6582031 C148.214353,24.9772151 147.625329,25.1367188 146.959961,25.1367188 C145.957352,25.1367188 145.145023,24.7880894 144.522949,24.0908203 C143.900876,23.3935512 143.589844,22.4707089 143.589844,21.3222656 L143.589844,21.2333984 Z M144.861328,21.3837891 C144.861328,22.2041057 145.051593,22.8626277 145.432129,23.359375 C145.812665,23.8561223 146.321937,24.1044922 146.959961,24.1044922 C147.602542,24.1044922 148.112954,23.8527043 148.491211,23.3491211 C148.869468,22.8455378 149.058594,22.140304 149.058594,21.2333984 C149.058594,20.4221965 148.86605,19.7648137 148.480957,19.2612305 C148.095864,18.7576472 147.584313,18.5058594 146.946289,18.5058594 C146.321937,18.5058594 145.818361,18.7542293 145.435547,19.2509766 C145.052732,19.7477238 144.861328,20.4586542 144.861328,21.3837891 Z M155.484375,18.7382812 C155.292968,18.70638 155.085613,18.6904297 154.862305,18.6904297 C154.032873,18.6904297 153.470054,19.0436163 153.173828,19.75 L153.173828,25 L151.90918,25 L151.90918,17.6035156 L153.139648,17.6035156 L153.160156,18.4580078 C153.574872,17.7971972 154.162757,17.4667969 154.923828,17.4667969 C155.169923,17.4667969 155.35677,17.4986976 155.484375,17.5625 L155.484375,18.7382812 Z M158.362305,15.8125 L158.362305,17.6035156 L159.743164,17.6035156 L159.743164,18.5810547 L158.362305,18.5810547 L158.362305,23.1679688 C158.362305,23.4641942 158.423828,23.6863599 158.546875,23.8344727 C158.669922,23.9825854 158.879556,24.0566406 159.175781,24.0566406 C159.321615,24.0566406 159.522134,24.0292971 159.777344,23.9746094 L159.777344,25 C159.44466,25.0911463 159.121095,25.1367188 158.806641,25.1367188 C158.241534,25.1367188 157.815431,24.965822 157.52832,24.6240234 C157.24121,24.2822249 157.097656,23.7968781 157.097656,23.1679688 L157.097656,18.5810547 L155.750977,18.5810547 L155.750977,17.6035156 L157.097656,17.6035156 L157.097656,15.8125 L158.362305,15.8125 Z M162.634766,22.1904297 L161.493164,22.1904297 L161.404297,15.046875 L162.730469,15.046875 L162.634766,22.1904297 Z M161.356445,24.3642578 C161.356445,24.1591787 161.419107,23.9871426 161.544434,23.8481445 C161.66976,23.7091464 161.855468,23.6396484 162.101562,23.6396484 C162.347657,23.6396484 162.534505,23.7091464 162.662109,23.8481445 C162.789714,23.9871426 162.853516,24.1591787 162.853516,24.3642578 C162.853516,24.569337 162.789714,24.7390944 162.662109,24.8735352 C162.534505,25.0079759 162.347657,25.0751953 162.101562,25.0751953 C161.855468,25.0751953 161.66976,25.0079759 161.544434,24.8735352 C161.419107,24.7390944 161.356445,24.569337 161.356445,24.3642578 Z" id="Appreciate-your-supp" fill="#2B405B" fill-rule="evenodd"></path>
                        </g>
                    </g>
                </g>
            </g>
        </g>
    </g>
</svg>