<?xml version="1.0" encoding="UTF-8"?>
<svg width="20px" height="20px" viewBox="0 0 20 20" version="1.1" xmlns="http://www.w3.org/2000/svg" xmlns:xlink="http://www.w3.org/1999/xlink">
    <!-- Generator: sketchtool 52.2 (67145) - http://www.bohemiancoding.com/sketch -->
    <title>4085D79A-2E81-4CF9-9D72-E6F499C5B3E5</title>
    <desc>Created with sketchtool.</desc>
    <defs>
        <path d="M5.61484375,8.796875 L8.21640625,8.796875 L8.21640625,6.1953125 L5.61484375,6.1953125 L5.61484375,8.796875 Z M5.61484375,10.0976562 L5.61484375,11.5917969 C5.61484375,12.3418006 5.34385037,12.9848606 4.80185547,13.5209961 C4.25986057,14.0571316 3.60801162,14.3251953 2.84628906,14.3251953 C2.0845665,14.3251953 1.43418238,14.0556668 0.895117187,13.5166016 C0.356051992,12.9775364 0.0865234375,12.3242226 0.0865234375,11.5566406 C0.0865234375,10.8066369 0.356051992,10.1591824 0.895117187,9.61425781 C1.43418238,9.06933321 2.07577753,8.796875 2.81992187,8.796875 L4.3140625,8.796875 L4.3140625,6.1953125 L2.81992187,6.1953125 C2.07577753,6.1953125 1.43418238,5.92285429 0.895117187,5.37792969 C0.356051992,4.83300509 0.0865234375,4.18262097 0.0865234375,3.42675781 C0.0865234375,2.66503525 0.356051992,2.01465113 0.895117187,1.47558594 C1.43418238,0.936520742 2.0845665,0.666992188 2.84628906,0.666992188 C3.60801162,0.666992188 4.25986057,0.935055913 4.80185547,1.47119141 C5.34385037,2.0073269 5.61484375,2.65038687 5.61484375,3.40039062 L5.61484375,4.89453125 L8.21640625,4.89453125 L8.21640625,3.40039062 C8.21640625,2.65038687 8.48739963,2.0073269 9.02939453,1.47119141 C9.57138943,0.935055913 10.2232384,0.666992188 10.9849609,0.666992188 C11.7525429,0.666992188 12.4043919,0.936520742 12.9405273,1.47558594 C13.4766628,2.01465113 13.7447266,2.66503525 13.7447266,3.42675781 C13.7447266,4.18262097 13.4766628,4.83300509 12.9405273,5.37792969 C12.4043919,5.92285429 11.7613319,6.1953125 11.0113281,6.1953125 L9.5171875,6.1953125 L9.5171875,8.796875 L11.0113281,8.796875 C11.7613319,8.796875 12.4043919,9.06933321 12.9405273,9.61425781 C13.4766628,10.1591824 13.7447266,10.8066369 13.7447266,11.5566406 C13.7447266,12.3242226 13.4766628,12.9775364 12.9405273,13.5166016 C12.4043919,14.0556668 11.7525429,14.3251953 10.9849609,14.3251953 C10.2232384,14.3251953 9.57138943,14.0571316 9.02939453,13.5209961 C8.48739963,12.9848606 8.21640625,12.3418006 8.21640625,11.5917969 L8.21640625,10.0976562 L5.61484375,10.0976562 Z M4.3140625,4.89453125 L4.3140625,3.42675781 C4.3140625,3.02245892 4.17050925,2.67822408 3.88339844,2.39404297 C3.59628763,2.10986186 3.25058796,1.96777344 2.84628906,1.96777344 C2.44784957,1.96777344 2.10507956,2.10986186 1.81796875,2.39404297 C1.53085794,2.67822408 1.38730469,3.02245892 1.38730469,3.42675781 C1.38730469,3.83105671 1.53085794,4.17675638 1.81796875,4.46386719 C2.10507956,4.750978 2.45077923,4.89453125 2.85507812,4.89453125 L4.3140625,4.89453125 Z M4.3140625,10.0976562 L2.85507812,10.0976562 C2.45077923,10.0976562 2.10507956,10.2412095 1.81796875,10.5283203 C1.53085794,10.8154311 1.38730469,11.1582011 1.38730469,11.5566406 C1.38730469,11.9609395 1.53085794,12.3066392 1.81796875,12.59375 C2.10507956,12.8808608 2.45077923,13.0244141 2.85507812,13.0244141 C3.25351762,13.0244141 3.59628763,12.8808608 3.88339844,12.59375 C4.17050925,12.3066392 4.3140625,11.9638692 4.3140625,11.5654297 L4.3140625,10.0976562 Z M9.5171875,4.89453125 L10.9849609,4.89453125 C11.3834004,4.89453125 11.7261704,4.750978 12.0132812,4.46386719 C12.3003921,4.17675638 12.4439453,3.83105671 12.4439453,3.42675781 C12.4439453,3.02245892 12.3018569,2.67822408 12.0176758,2.39404297 C11.7334947,2.10986186 11.3892598,1.96777344 10.9849609,1.96777344 C10.580662,1.96777344 10.2349624,2.10986186 9.94785156,2.39404297 C9.66074075,2.67822408 9.5171875,3.02245892 9.5171875,3.42675781 L9.5171875,4.89453125 Z M9.5171875,10.0976562 L9.5171875,11.5654297 C9.5171875,11.9638692 9.66074075,12.3066392 9.94785156,12.59375 C10.2349624,12.8808608 10.580662,13.0244141 10.9849609,13.0244141 C11.3892598,13.0244141 11.7334947,12.8808608 12.0176758,12.59375 C12.3018569,12.3066392 12.4439453,11.9609395 12.4439453,11.5566406 C12.4439453,11.1582011 12.3003921,10.8154311 12.0132812,10.5283203 C11.7261704,10.2412095 11.3834004,10.0976562 10.9849609,10.0976562 L9.5171875,10.0976562 Z" id="path-1"></path>
    </defs>
    <g id="---------↳-Keyboard-Shortcuts" stroke="none" stroke-width="1" fill="none" fill-rule="evenodd">
        <g id="Desktop-App---Keyboard-Shortcuts-(Mac)-" transform="translate(-511.000000, -343.000000)">
            <g id="Edit-Task" transform="translate(190.000000, 231.000000)">
                <g id="Group-5" transform="translate(30.000000, 110.000000)">
                    <g id="Command" transform="translate(291.000000, 2.000000)">
                        <g id="Group-2" transform="translate(3.000000, 3.000000)">
                            <mask id="mask-2" fill="white">
                                <use xlink:href="#path-1"></use>
                            </mask>
                            <use id="Mask" fill="#2B405B" xlink:href="#path-1"></use>
                        </g>
                    </g>
                </g>
            </g>
        </g>
    </g>
</svg>