<svg xmlns="http://www.w3.org/2000/svg" xmlns:xlink="http://www.w3.org/1999/xlink" version="1.1" x="0px" y="0px" viewBox="0 0 20 25" enable-background="new 0 0 20 20" xml:space="preserve"><g><path fill="#FFFFFF" d="M14,9.4V8c0-3.3-2.7-6-6-6S2,4.7,2,8v1.4c0,2.2-0.6,4.3-1.8,6.1c-0.2,0.3-0.2,0.7,0,1C0.3,16.8,0.6,17,1,17   h3.1c0.4,1.7,2,3,3.9,3c1.9,0,3.4-1.3,3.9-3H15c0.4,0,0.7-0.2,0.9-0.5c0.2-0.3,0.2-0.7,0-1C14.6,13.6,14,11.6,14,9.4z M8,18   c-0.7,0-1.4-0.4-1.7-1h3.4C9.4,17.6,8.7,18,8,18z M2.7,15C3.6,13.3,4,11.4,4,9.4V8c0-2.2,1.8-4,4-4c2.2,0,4,1.8,4,4v1.4   c0,2,0.4,3.9,1.3,5.6H2.7z"/><path fill="#FFFFFF" d="M18,4l1.8-2.4c0.2-0.3,0.3-0.7,0.1-1C19.7,0.2,19.4,0,19,0h-4v2h2l-1.8,2.4c-0.2,0.3-0.3,0.7-0.1,1   C15.3,5.8,15.6,6,16,6h4V4H18z"/></g></svg>