<?xml version="1.0" encoding="UTF-8"?>
<svg width="18px" height="18px" viewBox="0 0 18 18" version="1.1" xmlns="http://www.w3.org/2000/svg" xmlns:xlink="http://www.w3.org/1999/xlink">
    <!-- Generator: Sketch 48.2 (47327) - http://www.bohemiancoding.com/sketch -->
    <title>Time Doctor - logo-пкфн</title>
    <desc>Created with Sketch.</desc>
    <defs></defs>
    <g id="set_of_icons-black" stroke="none" stroke-width="1" fill="none" fill-rule="evenodd" transform="translate(-374.000000, -22.000000)">
        <g id="Time-Doctor---logo" transform="translate(374.000000, 22.000000)" fill="#96A9B3" fill-rule="nonzero">
            <path d="M14.336414,1.80199625 C13.8124877,2.15731355 13.3280373,2.51408623 12.970431,2.81877287 C11.8612375,2.05303468 10.5333545,1.59223648 9.1022501,1.5521128 L9.1022501,2.68823715 L8.54292968,2.68823715 L8.54292968,1.55728429 C4.78601808,1.74238822 1.77894922,4.83369505 1.63636364,8.67344224 L2.67102766,8.67344224 L2.67102766,9.24355522 L1.63636364,9.24355522 C1.77894922,13.0831241 4.78619305,16.1747876 8.54292968,16.3595348 L8.54292968,15.2287603 L9.1022501,15.2287603 L9.1022501,16.3636364 C12.9300171,16.2562832 16.0175637,13.1350174 16.1622487,9.24355522 L14.9741521,9.24355522 L14.9741521,8.67344224 L16.1636483,8.67344224 C16.1080137,7.18583445 15.6181491,5.81342617 14.8250933,4.6756969 C15.0845342,4.34462334 15.4652675,3.83444637 15.86732,3.27084778 C17.134715,4.81314813 17.8954538,6.78672782 17.8954538,8.9377864 C17.8954538,13.8739806 13.889411,17.8755728 8.9477269,17.8755728 C4.00604275,17.8755728 0,13.8739806 0,8.9377864 C0,4.00159223 4.00604275,0 8.9477269,0 C10.9710603,0 12.8375401,0.670838176 14.336414,1.80199625 Z" id="Combined-Shape"></path>
            <path d="M8.48247824,8.44037951 L5.83266064,6.33944749 L4.90909091,7.26199118 L9.0829123,11.925564 C10.9515708,8.39686496 14.2263157,4.08070962 16.8079021,1.22727273 C15.3050675,1.93503972 10.7089129,5.97560281 8.48247824,8.44037951" id="Fill-4"></path>
        </g>
    </g>
</svg>