<svg xmlns="http://www.w3.org/2000/svg" xmlns:xlink="http://www.w3.org/1999/xlink" width="317px" height="49px" viewBox="0 0 317 49" version="1.1">
    <!-- Generator: Sketch 48.2 (47327) - http://www.bohemiancoding.com/sketch -->
    <title>Browser</title>
    <desc>Created with Sketch.</desc>
    <defs>
        <rect id="path-1" x="0" y="0" width="362" height="222" rx="5"/>
    </defs>
    <g id="Jira-Webpage-Button_SignUp_Button_PopUp" stroke="none" stroke-width="1" fill="none" fill-rule="evenodd" transform="translate(-698.000000, -425.000000)">
        
        <g id="Sign-In" transform="translate(676.000000, 392.000000)">
            <g id="Onboarding" transform="translate(0.000000, 12.000000)">
                <g id="Background">
                    <use fill="#FBFDFF" fill-rule="evenodd" xlink:href="#path-1"/>
                    <rect stroke="#DFE3EB" stroke-width="2" x="1" y="1" width="360" height="220" rx="5"/>
                </g>
                <g id="Bar_Browser" transform="translate(22.000000, 20.949367)">
                    <g id="Browser" transform="translate(1.000000, 1.000000)">
                        <path d="M2.13766543,13.9409283 L6.34466482,13.9409283 C16.6364821,13.9409283 11.334762,0 20.9447082,0 L48.8864057,0 L76.8281033,0 C86.4380488,0 81.1363294,13.9409283 91.4281459,13.9409283 L119.231995,13.9409283 L129.037402,13.9409283" id="path2985" stroke="#D8DDE6" fill="#FFFFFF" fill-rule="nonzero"/>
                        <rect id="rect2989" stroke="#D8DDE6" fill="#FFFFFF" fill-rule="nonzero" stroke-linejoin="round" x="0" y="13.9409283" width="315" height="32.8607595" rx="3"/>
                        <rect id="rect3761" stroke="#D8DDE6" stroke-linejoin="round" x="10" y="21.907173" width="273" height="17.9240506" rx="4"/>
                        <g id="lock" transform="translate(20.500000, 30.371308) rotate(-360.000000) translate(-20.500000, -30.371308) translate(17.000000, 25.890295)" fill="#D8DDE6" fill-rule="nonzero">
                            <path d="M6.70833333,2.80063291 L5.54166667,2.80063291 L5.54166667,1.96044304 C5.54166667,0.879398734 4.62583333,3.6e-15 3.5,3.6e-15 C2.37416667,3.6e-15 1.45833333,0.879398734 1.45833333,1.96044304 L1.45833333,2.80063291 L0.291666667,2.80063291 C0.130666667,2.80063291 0,2.92610127 0,3.0806962 L0,8.68196203 C0,8.83655696 0.130666667,8.96202532 0.291666667,8.96202532 L6.70833333,8.96202532 C6.86933333,8.96202532 7,8.83655696 7,8.68196203 L7,3.0806962 C7,2.92610127 6.86933333,2.80063291 6.70833333,2.80063291 Z M3.79166667,6.40168671 L3.79166667,7.28164557 L3.20833333,7.28164557 L3.20833333,6.40168671 C2.70666667,6.27649842 2.33333333,5.84156013 2.33333333,5.32120253 C2.33333333,4.70338291 2.85658333,4.20094937 3.5,4.20094937 C4.14341667,4.20094937 4.66666667,4.70338291 4.66666667,5.32120253 C4.66666667,5.84156013 4.29333333,6.27649842 3.79166667,6.40168671 Z M4.95833333,2.80063291 L2.04166667,2.80063291 L2.04166667,1.96044304 C2.04166667,1.18830854 2.695875,0.560126582 3.5,0.560126582 C4.304125,0.560126582 4.95833333,1.18830854 4.95833333,1.96044304 L4.95833333,2.80063291 Z" id="Shape"/>
                        </g>
                        <text id="yourwebsite.com" font-family="Roboto-Regular, Roboto" font-size="9" font-weight="normal" fill="#D8DDE6">
                            <tspan x="29" y="33.8691983">yourwebsite.com</tspan>
                        </text>
                    </g>
                    <g id="Time-Doctor---logo" transform="translate(292.000000, 23.902954)" fill-rule="nonzero">
                        <path d="M15,7.46835441 C15,11.5930052 11.6421281,14.9367089 7.5,14.9367089 C3.35787189,14.9367089 0,11.5930052 0,7.46835441 C0,3.34370365 3.35787189,0 7.5,0 C11.6421281,0 15,3.34370365 15,7.46835441" id="Fill-2" fill="#77909D"/>
                        <path d="M11.9226668,7.74578603 L11.9226668,7.32946725 L12.8075942,7.32946725 C12.7662048,6.24315787 12.4017693,5.24097168 11.8117743,4.41015728 C12.4637233,3.59353702 14.1452026,1.28470634 13.9899271,1.02061674 C13.8549558,0.791426559 11.4511133,2.20185775 10.4319956,3.05415875 C9.60680957,2.49498679 8.61892912,2.15849393 7.55425692,2.12919404 L7.55425692,2.95883647 L7.13814969,2.95883647 L7.13814969,2.13297047 C4.34318993,2.26814059 2.10607675,4.52553371 2,7.32946725 L2.76973978,7.32946725 L2.76973978,7.74578603 L2,7.74578603 C2.10607675,10.5495894 4.3433201,12.8072429 7.13814969,12.9421526 L7.13814969,12.1164168 L7.55425692,12.1164168 L7.55425692,12.9451477 C10.4019297,12.8667542 12.6989144,10.5874839 12.806553,7.74578603 L11.9226668,7.74578603 Z" id="Fill-3" fill="#FFFFFF"/>
                        <path d="M6.70283185,7.36264078 L4.6985679,5.79822846 L4,6.48518011 L7.15698701,9.95780591 C8.57039934,7.33023864 11.0473446,4.11630952 13,1.99156118 C11.8632888,2.51858414 8.38685821,5.52729961 6.70283185,7.36264078" id="Fill-4" fill="#77909D"/>
                    </g>
                    <g id="check-this-arrow" transform="translate(290.186198, 70.503723) scale(-1, 1) rotate(-105.000000) translate(-290.186198, -70.503723) translate(270.686198, 54.003723)"/>
                </g>
            </g>
        </g>
    </g>
</svg>