<?xml version="1.0" encoding="utf-8"?>
<!-- Generator: Adobe Illustrator 16.0.0, SVG Export Plug-In . SVG Version: 6.00 Build 0)  -->
<!DOCTYPE svg PUBLIC "-//W3C//DTD SVG 1.1//EN" "http://www.w3.org/Graphics/SVG/1.1/DTD/svg11.dtd">
<svg version="1.1" id="Layer_1" xmlns="http://www.w3.org/2000/svg" xmlns:xlink="http://www.w3.org/1999/xlink" x="0px" y="0px"
	 width="16px" height="16px" viewBox="0 0 16 16" enable-background="new 0 0 16 16" xml:space="preserve">
<title>Checkbox - active</title>
<desc>Created with Sketch.</desc>
<g id="Style-Guide-and-UI-KIT">
	<g id="Checkbox---active" transform="translate(-1065.000000, -3206.000000)">
		<g transform="translate(1065.000000, 3206.000000)">
			<defs>
				<filter id="Adobe_OpacityMaskFilter" filterUnits="userSpaceOnUse" x="0" y="0" width="16" height="16">
					<feColorMatrix  type="matrix" values="1 0 0 0 0  0 1 0 0 0  0 0 1 0 0  0 0 0 1 0"/>
				</filter>
			</defs>
			<mask maskUnits="userSpaceOnUse" x="0" y="0" width="16" height="16" id="mask-2">
				<g filter="url(#Adobe_OpacityMaskFilter)">
					<path id="path-1" fill="#FFFFFF" d="M3,0h10c1.656,0,3,1.343,3,3v10c0,1.656-1.344,3-3,3H3c-1.657,0-3-1.344-3-3V3
						C0,1.343,1.343,0,3,0z"/>
				</g>
			</mask>
			<g mask="url(#mask-2)">
				<g id="Checkbox---Inactive">
					<path id="path-1_1_" fill="#657FAC" d="M3,0h10c1.656,0,3,1.343,3,3v10c0,1.656-1.344,3-3,3H3c-1.657,0-3-1.344-3-3V3
						C0,1.343,1.343,0,3,0z"/>
				</g>
				<polyline id="Shape" fill="none" stroke="#FFFFFF" stroke-linecap="square" points="4,7.667 6.667,10.334 12,5 				"/>
			</g>
		</g>
	</g>
</g>
</svg>
