<?xml version="1.0" encoding="utf-8"?>
<!-- Generator: Adobe Illustrator 16.0.0, SVG Export Plug-In . SVG Version: 6.00 Build 0)  -->
<!DOCTYPE svg PUBLIC "-//W3C//DTD SVG 1.1//EN" "http://www.w3.org/Graphics/SVG/1.1/DTD/svg11.dtd">
<svg version="1.1" id="Layer_1" xmlns="http://www.w3.org/2000/svg" xmlns:xlink="http://www.w3.org/1999/xlink" x="0px" y="0px"
	 width="40px" height="40px" viewBox="0 0 40 40" enable-background="new 0 0 40 40" xml:space="preserve">
<rect fill-rule="evenodd" clip-rule="evenodd" fill="#FEFEFE" width="40" height="40"/>
<g>
	<path fill-rule="evenodd" clip-rule="evenodd" fill="#6C85A0" d="M20.112,30.328c-3.789,0-7.577-0.002-11.365,0.005
		c-0.228,0-0.286-0.057-0.286-0.284c0.006-6.829,0.006-13.659,0-20.489c0-0.212,0.042-0.277,0.269-0.276
		c3.298,0.009,6.597,0.009,9.895,0c0.239-0.001,0.302,0.056,0.301,0.299c-0.007,6.455-0.006,12.911-0.006,19.366
		c0,0.327,0,0.327,0.315,0.327c0.581,0,1.164-0.013,1.744,0.006c0.246,0.008,0.32-0.051,0.319-0.311
		c-0.011-3.115-0.007-6.231-0.007-9.347c0-0.353,0-0.353,0.344-0.353c3.274-0.001,6.548,0.001,9.82-0.005
		c0.212,0,0.298,0.031,0.298,0.277c-0.01,3.506-0.01,7.013-0.002,10.519c0.002,0.226-0.061,0.27-0.274,0.27
		C27.689,30.326,23.9,30.328,20.112,30.328z"/>
	<path fill-rule="evenodd" clip-rule="evenodd" fill="#FEFEFE" d="M9.57,19.811c0-3.066,0.002-6.132-0.005-9.197
		c0-0.217,0.05-0.277,0.273-0.277c2.567,0.008,5.134,0.008,7.701,0.001c0.209-0.001,0.262,0.056,0.261,0.262
		c-0.005,6.139-0.005,12.278,0,18.418c0,0.203-0.05,0.264-0.26,0.264c-2.567-0.008-5.134-0.009-7.701,0
		c-0.222,0.001-0.274-0.056-0.274-0.275C9.573,25.94,9.57,22.874,9.57,19.811z"/>
	<path fill-rule="evenodd" clip-rule="evenodd" fill="#FEFEFE" d="M30.645,24.83c0,1.395-0.004,2.791,0.005,4.187
		c0.001,0.204-0.048,0.266-0.26,0.265c-2.575-0.009-5.149-0.01-7.725-0.006c-0.195,0.001-0.251-0.05-0.251-0.249
		c0.007-2.807,0.007-5.614,0-8.423c0-0.205,0.054-0.263,0.262-0.263c2.574,0.009,5.149,0.007,7.725,0.001
		c0.199-0.001,0.25,0.059,0.249,0.252C30.641,22.005,30.645,23.418,30.645,24.83z"/>
	<path fill-rule="evenodd" clip-rule="evenodd" fill="#6C86A1" d="M13.693,19.271c0.499,0,0.997,0.008,1.495-0.004
		c0.179-0.003,0.229,0.06,0.221,0.229c-0.013,0.225-0.008,0.449-0.002,0.672c0.004,0.123-0.031,0.182-0.166,0.18
		c-1.038-0.004-2.076-0.004-3.114,0c-0.134,0.002-0.171-0.051-0.167-0.176c0.006-0.241,0.009-0.482-0.001-0.723
		c-0.007-0.148,0.057-0.182,0.191-0.18C12.664,19.275,13.179,19.271,13.693,19.271z"/>
	<path fill-rule="evenodd" clip-rule="evenodd" fill="#6C85A0" d="M13.686,13.677c-0.514,0-1.029-0.004-1.543,0.003
		c-0.141,0.002-0.191-0.041-0.185-0.184c0.01-0.232,0.007-0.465,0.001-0.697c-0.003-0.123,0.027-0.179,0.165-0.179
		c1.037,0.004,2.074,0.004,3.112,0c0.13,0,0.176,0.043,0.171,0.172c-0.007,0.232-0.011,0.465,0.002,0.697
		c0.009,0.164-0.061,0.191-0.205,0.189C14.699,13.673,14.193,13.677,13.686,13.677z"/>
	<path fill-rule="evenodd" clip-rule="evenodd" fill="#6C86A0" d="M13.683,17.013c-0.498,0-0.996-0.009-1.494,0.004
		c-0.192,0.005-0.245-0.057-0.232-0.24c0.015-0.215,0.009-0.432,0.002-0.647c-0.004-0.126,0.037-0.177,0.169-0.176
		c1.037,0.003,2.074,0.004,3.11,0c0.135,0,0.173,0.052,0.168,0.177c-0.01,0.281,0.089,0.638-0.047,0.823
		c-0.134,0.182-0.512,0.046-0.781,0.056C14.28,17.021,13.981,17.013,13.683,17.013z"/>
	<path fill-rule="evenodd" clip-rule="evenodd" fill="#6C86A0" d="M13.676,22.605c0.514,0,1.028,0.004,1.542-0.002
		c0.135-0.002,0.196,0.034,0.189,0.181c-0.009,0.24-0.006,0.48-0.001,0.722c0.002,0.118-0.045,0.157-0.161,0.157
		c-1.037-0.002-2.073-0.003-3.11,0.002c-0.15,0-0.181-0.065-0.176-0.195c0.007-0.224,0.01-0.448-0.001-0.673
		c-0.009-0.155,0.05-0.197,0.199-0.194C12.664,22.61,13.169,22.605,13.676,22.605z"/>
	<path fill-rule="evenodd" clip-rule="evenodd" fill="#6C85A0" d="M13.702,26.993c-0.515,0-1.029-0.004-1.543,0.002
		c-0.147,0.002-0.21-0.034-0.201-0.192c0.012-0.224,0.012-0.448,0-0.672c-0.009-0.159,0.053-0.193,0.201-0.192
		c1.012,0.005,2.024,0.005,3.036,0c0.155-0.001,0.225,0.033,0.215,0.204c-0.015,0.224-0.011,0.448-0.001,0.671
		c0.007,0.146-0.05,0.184-0.188,0.182C14.714,26.989,14.208,26.992,13.702,26.993z"/>
	<path fill-rule="evenodd" clip-rule="evenodd" fill="#6C86A0" d="M26.539,22.605c0.507,0,1.013,0.005,1.519-0.003
		c0.149-0.003,0.207,0.04,0.199,0.195c-0.012,0.224-0.012,0.449,0,0.672c0.008,0.157-0.056,0.195-0.202,0.195
		c-1.021-0.005-2.041-0.005-3.062,0c-0.139,0-0.191-0.043-0.186-0.186c0.008-0.232,0.009-0.465,0-0.696
		c-0.007-0.147,0.055-0.182,0.189-0.18C25.511,22.609,26.025,22.605,26.539,22.605z"/>
	<path fill-rule="evenodd" clip-rule="evenodd" fill="#6C85A0" d="M26.513,26.993c-0.507-0.001-1.013-0.004-1.519,0.002
		c-0.137,0.002-0.193-0.036-0.187-0.182c0.009-0.231,0.01-0.465-0.001-0.695c-0.007-0.148,0.054-0.18,0.188-0.18
		c1.028,0.005,2.057,0.005,3.086,0c0.152-0.001,0.179,0.062,0.175,0.191c-0.008,0.225-0.012,0.449,0.001,0.673
		c0.008,0.158-0.055,0.194-0.201,0.192C27.542,26.989,27.026,26.993,26.513,26.993z"/>
</g>
</svg>
