<?xml version="1.0" encoding="UTF-8"?>
<svg width="18px" height="17px" viewBox="0 0 18 17" version="1.1" xmlns="http://www.w3.org/2000/svg" xmlns:xlink="http://www.w3.org/1999/xlink">
    <!-- Generator: Sketch 49.2 (51160) - http://www.bohemiancoding.com/sketch -->
    <title>Icon/chrome connected</title>
    <desc>Created with Sketch.</desc>
    <defs>
        <path d="M8.96666667,10.4666667 C8.13823954,10.4666667 7.46666667,9.79509379 7.46666667,8.96666667 C7.46666667,8.13823954 8.13823954,7.46666667 8.96666667,7.46666667 C9.79509379,7.46666667 10.4666667,8.13823954 10.4666667,8.96666667 C10.4666667,9.79509379 9.79509379,10.4666667 8.96666667,10.4666667 Z M14.1876257,16.3475961 L13.3712296,16.9250884 L12.2162449,15.2922963 L13.032641,14.7148039 C14.8807729,13.4074947 16,11.2988664 16,9 C16,5.13415142 12.8658486,2 9,2 C5.13415142,2 2,5.13415142 2,9 C2,11.2988664 3.11922707,13.4074947 4.96735903,14.7148039 L5.78375512,15.2922963 L4.62877039,16.9250884 L3.8123743,16.3475961 C1.44048108,14.669795 0,11.9559228 0,9 C0,4.02958192 4.02958192,0 9,0 C13.9704181,0 18,4.02958192 18,9 C18,11.9559228 16.5595189,14.669795 14.1876257,16.3475961 Z M12.0360536,13.2996706 L11.219583,13.8770576 L10.0648091,12.2441164 L10.8812797,11.6667294 C11.7448411,11.056041 12.2666667,10.0729441 12.2666667,9 C12.2666667,7.19601808 10.8039819,5.73333333 9,5.73333333 C7.19601808,5.73333333 5.73333333,7.19601808 5.73333333,9 C5.73333333,10.0729441 6.25515891,11.056041 7.11872032,11.6667294 L7.93519094,12.2441164 L6.78041697,13.8770576 L5.96394635,13.2996706 C4.57647005,12.3184831 3.73333333,10.7300499 3.73333333,9 C3.73333333,6.09144858 6.09144858,3.73333333 9,3.73333333 C11.9085514,3.73333333 14.2666667,6.09144858 14.2666667,9 C14.2666667,10.7300499 13.42353,12.3184831 12.0360536,13.2996706 Z" id="path-1"></path>
    </defs>
    <g id="Symbols🔥" stroke="none" stroke-width="1" fill="none" fill-rule="evenodd">
        <g id="Chrome-status/Connected" transform="translate(-51.000000, -7.000000)">
            <g id="Icon/chrome-connected" transform="translate(51.000000, 7.000000)">
                <mask id="mask-2" fill="white">
                    <use xlink:href="#path-1"></use>
                </mask>
                <use id="Combined-Shape" fill="#51BE71" xlink:href="#path-1"></use>
            </g>
        </g>
    </g>
</svg>