<?xml version="1.0" encoding="UTF-8"?>
<svg width="66px" height="88px" viewBox="0 0 66 88" version="1.1" xmlns="http://www.w3.org/2000/svg" xmlns:xlink="http://www.w3.org/1999/xlink">
    <!-- Generator: Sketch 49.2 (51160) - http://www.bohemiancoding.com/sketch -->
    <title>Combined Shape</title>
    <desc>Created with Sketch.</desc>
    <defs></defs>
    <g id="1:-Web-Evo-step1" stroke="none" stroke-width="1" fill="none" fill-rule="evenodd" fill-opacity="0.8">
        <g id="Dashboard---Team-not-tracked-time" transform="translate(-502.000000, -310.000000)" fill="#F4F8F9" fill-rule="nonzero">
            <g id="Group" transform="translate(474.000000, 264.000000)">
                <g id="Edit-Task">
                    <path d="M91.25,51 L30.75,51 C29.1,51 28,50 28,48.5 C28,47 29.1,46 30.75,46 L91.25,46 C92.9,46 94,47 94,48.5 C94,50 92.9,51 91.25,51 Z M36,120.25 C36,106.775 42.2611111,99.625 46.3444444,94.675 C47.9777778,92.75 49.6111111,90.825 49.6111111,90 C49.6111111,89.175 47.9777778,87.25 46.3444444,85.325 C42.2611111,80.65 36,73.225 36,59.75 L36,57 L85,57 L85,59.75 C85,73.225 78.7388889,80.65 74.6555556,85.325 C73.0222222,87.25 71.3888889,89.175 71.3888889,90 C71.3888889,90.825 73.0222222,92.75 74.6555556,94.675 C78.7388889,99.625 85,106.775 85,120.25 L85,123 L36,123 L36,120.25 Z M91.25,134 L30.75,134 C29.1,134 28,133 28,131.5 C28,130 29.1,129 30.75,129 L91.25,129 C92.9,129 94,130 94,131.5 C94,133 92.9,134 91.25,134 Z" id="Combined-Shape"></path>
                </g>
            </g>
        </g>
    </g>
</svg>