<?xml version="1.0" encoding="utf-8"?>
<!-- Generator: Adobe Illustrator 16.0.0, SVG Export Plug-In . SVG Version: 6.00 Build 0)  -->
<!DOCTYPE svg PUBLIC "-//W3C//DTD SVG 1.1//EN" "http://www.w3.org/Graphics/SVG/1.1/DTD/svg11.dtd">
<svg version="1.1" id="Layer_1" xmlns="http://www.w3.org/2000/svg" xmlns:xlink="http://www.w3.org/1999/xlink" x="0px" y="0px"
	 width="23px" height="25px" viewBox="0 0 23 25" enable-background="new 0 0 23 25" xml:space="preserve">
<title>Icon/calendar</title>
<desc>Created with Sketch.</desc>
<g id="Global-Nav">
	<g id="Buy-Now_Global-Nav" transform="translate(-71.000000, -113.000000)">
		<g id="Big" transform="translate(50.000000, 101.000000)">
			<g id="Icon_x2F_calendar" transform="translate(22.000000, 13.000000)">
				<g id="calendar-57">
					<polygon id="Shape" fill="#FFFFFF" points="22,6.13 22,8.13 -1,8.13 -1,6.13 					"/>
					<path id="Rectangle-path" fill="#FFFFFF" d="M1,3.139v18h19v-18H1z M1,1.139h19c1.104,0,2,0.896,2,2v18c0,1.105-0.896,2-2,2H1
						c-1.104,0-2-0.895-2-2v-18C-1,2.034-0.104,1.139,1,1.139z"/>
					<polygon id="Shape_1_" fill="#FFFFFF" points="9.5,-1 11.5,-1 11.5,5 9.5,5 					"/>
					<polygon id="Shape_2_" fill="#FFFFFF" points="3.9,-1 5.9,-1 5.9,5 3.9,5 					"/>
					<polygon id="Shape_3_" fill="#FFFFFF" points="15.1,-1 17.1,-1 17.1,5 15.1,5 					"/>
				</g>
			</g>
		</g>
	</g>
</g>
</svg>
