<?xml version="1.0" encoding="UTF-8"?>
<svg width="85px" height="126px" viewBox="0 0 85 126" version="1.1" xmlns="http://www.w3.org/2000/svg" xmlns:xlink="http://www.w3.org/1999/xlink">
    <!-- Generator: Sketch 41 (35326) - http://www.bohemiancoding.com/sketch -->
    <title>alert</title>
    <desc>Created with Sketch.</desc>
    <defs>
        <rect id="path-1" x="-6" y="0" width="1336" height="1330"></rect>
        <mask id="mask-2" maskContentUnits="userSpaceOnUse" maskUnits="objectBoundingBox" x="0" y="0" width="1336" height="1330" fill="white">
            <use xlink:href="#path-1"></use>
        </mask>
        <rect id="path-3" x="99.8605053" y="-161.835418" width="419" height="528" rx="60"></rect>
        <mask id="mask-4" maskContentUnits="userSpaceOnUse" maskUnits="objectBoundingBox" x="0" y="0" width="419" height="528" fill="white">
            <use xlink:href="#path-3"></use>
        </mask>
        <rect id="path-5" x="0" y="0.308807344" width="400" height="319.021407" rx="10"></rect>
    </defs>
    <g id="Page-1" stroke="none" stroke-width="1" fill="none" fill-rule="evenodd">
        <g id="Popups" transform="translate(-100.000000, -69.000000)">
            <use id="Rectangle-2" stroke="#ECF6FF" mask="url(#mask-2)" stroke-width="2" fill="#ECF6FF" xlink:href="#path-1"></use>
            <use id="Rectangle-3" stroke="#E3EFFA" mask="url(#mask-4)" stroke-width="160" transform="translate(309.360505, 102.164582) rotate(-31.000000) translate(-309.360505, -102.164582) " xlink:href="#path-3"></use>
            <g id="Not_allowed" transform="translate(100.000000, 41.000000)">
                <g id="basis">
                    <mask id="mask-6" fill="white">
                        <use xlink:href="#path-5"></use>
                    </mask>
                    <use id="basis-copy" fill="#FFFFFF" xlink:href="#path-5"></use>
                    <g id="decoration" mask="url(#mask-6)">
                        <g transform="translate(-39.000000, -218.311988)" id="alert">
                            <g transform="translate(0.000000, 246.000000)">
                                <path d="M68.2,69.8929664 L55.8,69.8929664 L55.8,32.3149847 L68.2,32.3149847 L68.2,69.8929664 Z M68.2,94.9449541 L55.8,94.9449541 L55.8,82.4189602 L68.2,82.4189602 L68.2,94.9449541 Z M0,63.6299694 C-8.2600593e-15,80.2404701 6.5321241,96.1706479 18.1593796,107.916046 C29.786635,119.661443 45.5565776,126.259939 62,126.259939 C78.4434224,126.259939 94.213365,119.661443 105.84062,107.916046 C117.467876,96.1706479 124,80.2404701 124,63.6299694 C124,47.0194688 117.467876,31.089291 105.84062,19.3438933 C94.213365,7.59849569 78.4434224,1 62,1 C27.7583455,1 2.7533531e-15,29.0403924 0,63.6299694 Z" fill="#F4F8F9"></path>
                            </g>
                        </g>
                    </g>
                </g>
            </g>
        </g>
    </g>
</svg>